<?xml version="1.0" encoding="UTF-8"?> <svg xmlns="http://www.w3.org/2000/svg" width="30" height="31" viewBox="0 0 30 31" fill="none"><g clip-path="url(#clip0)"><path d="M2.59863 14.8927C2.59873 14.8928 2.59887 14.8928 2.59896 14.8928C2.59882 14.8928 2.59873 14.8927 2.59863 14.8927Z" fill="black"></path><path d="M10.6525 9.84013C10.4092 9.84013 10.2119 10.0374 10.2119 10.2808V12.0025C10.2119 12.2458 10.4091 12.4431 10.6525 12.4431C10.8959 12.4431 11.0932 12.2458 11.0932 12.0025V10.2808C11.0932 10.0374 10.8959 9.84013 10.6525 9.84013Z" fill="black"></path><path d="M13.2387 10.3135C13.0039 10.2491 12.7616 10.3871 12.6972 10.6218L12.2414 12.2821C12.177 12.5168 12.315 12.7592 12.5497 12.8236C12.5888 12.8344 12.6279 12.8395 12.6665 12.8395C12.8601 12.8395 13.0375 12.711 13.0912 12.5154L13.547 10.855C13.6114 10.6204 13.4734 10.378 13.2387 10.3135Z" fill="black"></path><path d="M9.06311 12.2821L8.60731 10.6218C8.54292 10.3872 8.30057 10.249 8.06578 10.3135C7.83111 10.378 7.69313 10.6204 7.75752 10.8551L8.21332 12.5154C8.26705 12.711 8.44448 12.8395 8.63801 12.8395C8.67657 12.8395 8.71589 12.8344 8.75485 12.8237C8.98952 12.7592 9.12751 12.5168 9.06311 12.2821Z" fill="black"></path><path d="M29.8604 19.167C29.6477 18.6596 29.2053 18.2462 28.677 18.0613C28.3445 17.9449 27.9998 17.9228 27.6671 17.9951C27.4712 17.3313 27.0307 16.2583 26.9531 16.1029C26.5773 15.3503 26.0937 14.6569 25.5158 14.0418C24.5329 12.9956 23.297 12.2044 21.9419 11.7539C21.2488 11.5235 20.5189 11.3815 19.7725 11.332C19.0658 11.2851 18.4244 11.3395 17.6269 11.5142C17.5553 11.5299 17.4839 11.5466 17.4127 11.5642C17.2282 11.3204 17.0315 11.0854 16.8212 10.8616C15.8382 9.81536 14.6024 9.02417 13.2473 8.57369C12.5542 8.3433 11.8243 8.20133 11.0778 8.15176C10.3713 8.10488 9.72964 8.15932 8.93229 8.33404C8.38004 8.45492 7.83734 8.63147 7.31925 8.8587C6.59561 9.1761 5.91633 9.59382 5.30021 10.1005C5.11224 10.2551 5.08517 10.5327 5.23974 10.7206C5.39432 10.9087 5.67193 10.9356 5.8599 10.7811C6.4135 10.3258 7.02358 9.95054 7.67322 9.66565C8.13816 9.46175 8.62514 9.30337 9.12078 9.19479C9.84196 9.03688 10.3919 8.9893 11.0195 9.03102C11.6912 9.07567 12.3472 9.20311 12.9692 9.40995C14.186 9.81442 15.2959 10.5251 16.179 11.465C16.2934 11.5867 16.403 11.7122 16.5087 11.8407C16.3417 11.9019 16.1765 11.9676 16.0139 12.0389C14.7118 12.61 13.5579 13.5054 12.677 14.6282C12.2358 15.1906 11.8656 15.8058 11.5766 16.4569C11.5189 16.587 11.2009 17.4356 11.0388 17.9988C10.2963 17.8421 9.46426 18.1622 9.0268 18.7715C7.27419 18.6946 5.56512 18.5313 3.84163 18.2739L3.78257 18.2651C2.82227 18.122 1.37101 17.9056 0.972099 17.06C0.845711 16.792 0.850164 16.474 0.984111 16.2094C1.19757 15.7875 1.82833 15.5473 2.28174 15.7153C2.28291 15.7157 2.28765 15.7174 2.28877 15.7178L2.29498 15.7201C2.46742 15.7836 2.65902 15.7696 2.82068 15.6817C2.98229 15.5939 3.09819 15.4407 3.13868 15.2614C3.2387 14.8192 3.63005 13.7643 3.68753 13.6341C3.82528 13.324 3.98536 13.0194 4.16331 12.729C4.29046 12.5215 4.2253 12.2502 4.01788 12.1231C3.81052 11.9959 3.53917 12.061 3.41202 12.2685C3.21379 12.5919 3.03555 12.9311 2.88215 13.2766C2.82443 13.4068 2.50644 14.2554 2.34431 14.8186C1.51679 14.6439 0.577585 15.0613 0.197895 15.8116C-0.0576931 16.3168 -0.0661892 16.924 0.175219 17.436C0.775164 18.7078 2.50685 18.9659 3.65272 19.1367L3.71155 19.1455C5.37275 19.3936 7.02036 19.5564 8.70483 19.6394C8.67137 19.971 8.72569 20.3106 8.86988 20.6162C9.46983 21.888 11.2015 22.1462 12.3474 22.317L12.4062 22.3258C14.079 22.5756 15.714 22.7375 17.4048 22.8207C17.6473 22.8317 17.8545 22.6453 17.8665 22.4023C17.8785 22.1592 17.6912 21.9525 17.4481 21.9405C15.7866 21.8588 14.18 21.6997 12.5364 21.4542L12.4774 21.4454C11.517 21.3023 10.0658 21.0859 9.66688 20.2403C9.54049 19.9724 9.54495 19.6543 9.67889 19.3897C9.89235 18.9678 10.5231 18.7277 10.9765 18.8956C10.9777 18.896 10.9824 18.8977 10.9835 18.8981L10.9897 18.9004C11.1621 18.9638 11.3538 18.95 11.5154 18.8621C11.677 18.7742 11.7929 18.621 11.8334 18.4417C11.9334 17.9995 12.3248 16.9446 12.3823 16.8144C12.6418 16.2299 12.9742 15.6773 13.3705 15.1722C14.162 14.1633 15.1985 13.3589 16.3681 12.846C16.833 12.6421 17.32 12.4837 17.8156 12.3751C18.537 12.2172 19.0871 12.1696 19.7143 12.2113C20.386 12.256 21.0421 12.3834 21.6641 12.5903C22.8808 12.9947 23.9907 13.7054 24.8739 14.6453C25.393 15.198 25.8274 15.8209 26.1649 16.4967C26.2385 16.6454 26.7645 17.9451 26.8729 18.4357C26.9125 18.6155 27.0281 18.7694 27.1901 18.8578C27.3514 18.9459 27.5425 18.9604 27.7146 18.8977C27.7165 18.897 27.7185 18.8963 27.7204 18.8956C27.9906 18.7955 28.2316 18.8391 28.3864 18.8932C28.6828 18.9969 28.9302 19.2267 29.0479 19.5076C29.1182 19.6755 29.1722 19.9389 29.03 20.2403C28.6311 21.0859 27.1798 21.3023 26.2195 21.4454L26.1605 21.4542C24.1554 21.7537 22.1827 21.9268 20.1297 21.9834C19.8865 21.9901 19.6947 22.1927 19.7014 22.4359C19.708 22.6751 19.9039 22.8644 20.1416 22.8644C20.1457 22.8644 20.1499 22.8643 20.1541 22.8642C22.2428 22.8066 24.2501 22.6305 26.2907 22.3257L26.3495 22.3169C27.4954 22.1461 29.2272 21.888 29.827 20.6161C30.0456 20.1522 30.0575 19.6376 29.8604 19.167Z" fill="black"></path><path d="M19.3469 13.0204C19.1035 13.0204 18.9062 13.2176 18.9062 13.461V15.1827C18.9062 15.4261 19.1035 15.6233 19.3469 15.6233C19.5903 15.6233 19.7875 15.4261 19.7875 15.1827V13.461C19.7875 13.2177 19.5903 13.0204 19.3469 13.0204Z" fill="black"></path><path d="M21.9335 13.4937C21.6987 13.4293 21.4564 13.5673 21.392 13.802L20.9362 15.4623C20.8718 15.697 21.0098 15.9394 21.2445 16.0039C21.2836 16.0145 21.3228 16.0197 21.3614 16.0197C21.5549 16.0197 21.7324 15.8913 21.786 15.6956L22.2418 14.0353C22.3062 13.8006 22.1682 13.5582 21.9335 13.4937Z" fill="black"></path><path d="M17.7579 15.4623L17.3021 13.802C17.2377 13.5674 16.9954 13.4292 16.7606 13.4937C16.5259 13.5582 16.388 13.8006 16.4523 14.0352L16.9081 15.6956C16.9619 15.8912 17.1393 16.0197 17.3328 16.0197C17.3713 16.0197 17.4106 16.0146 17.4497 16.0038C17.6843 15.9394 17.8223 15.697 17.7579 15.4623Z" fill="black"></path></g><defs><clipPath id="clip0"><rect width="30" height="30" fill="white" transform="translate(0 0.5)"></rect></clipPath></defs></svg> 