<?xml version="1.0" encoding="UTF-8"?> <svg xmlns="http://www.w3.org/2000/svg" width="30" height="31" viewBox="0 0 30 31" fill="none"><g clip-path="url(#clip0)"><path d="M27.8287 16.6541C29.3464 13.9111 27.1026 10.5408 23.9546 10.9293C23.8944 8.07234 20.8622 6.2747 18.3378 7.53928C16.8705 4.87371 13.0138 4.87074 11.5448 7.53951C10.6865 7.10966 9.97217 7.14789 9.83278 7.13095C9.59154 7.13095 9.39493 7.32573 9.39333 7.56743C9.39173 7.81004 9.58719 8.00826 9.82981 8.00986C10.4258 8.01398 11.0005 8.19182 11.4913 8.52439C11.7247 8.68254 12.044 8.58298 12.1468 8.3216C13.1449 5.78489 16.7382 5.78535 17.7361 8.3216C17.8391 8.58344 18.1586 8.68231 18.3916 8.52439C20.5115 7.08792 23.3945 8.82399 23.0491 11.4133C23.0294 11.5603 23.0853 11.707 23.1972 11.8038C23.4886 12.0563 23.6504 11.7793 24.4272 11.7793C26.9134 11.7793 28.3022 14.6321 26.8257 16.5888C26.6458 16.8273 26.7518 17.1722 27.034 17.2691C28.2473 17.6852 29.0626 18.8266 29.0626 20.1095C29.0626 22.1845 26.9884 23.6535 25.0177 22.9263C25.2796 22.3638 25.4213 21.7476 25.4293 21.1212C25.5028 15.4833 20.8679 10.5729 14.9414 10.5729C8.96669 10.5729 4.32931 15.5664 4.45405 21.1559C4.46755 21.7952 4.61793 22.3951 4.86512 22.9263C2.89536 23.653 0.820314 22.1855 0.820314 20.1095C0.820314 18.8266 1.63559 17.6852 2.8489 17.2691C3.1318 17.172 3.23685 16.8269 3.05718 16.5888C1.35613 14.3343 3.47695 11.0982 6.27824 11.8942C6.58243 11.9805 6.87562 11.7269 6.83397 11.4133C6.67467 10.2199 7.22307 9.0737 8.24526 8.44863C8.45239 8.32183 8.5174 8.05152 8.39082 7.84438C8.26425 7.63724 7.99371 7.57201 7.78658 7.69881C6.64606 8.39621 5.95575 9.59922 5.92828 10.9293C2.7594 10.5395 0.545655 13.9276 2.05422 16.6541C0.771333 17.3105 -0.0585938 18.638 -0.0585938 20.1095C-0.0585938 22.879 2.77039 24.7572 5.32243 23.6906C6.12855 24.7764 7.42014 25.4814 8.87331 25.4814H16.875C17.1176 25.4814 17.3145 25.2847 17.3145 25.0419C17.3145 24.7993 17.1176 24.6025 16.875 24.6025H8.87331C6.95917 24.6025 5.39956 23.0781 5.3341 21.1841C5.15809 16.078 9.51372 11.3458 15.1273 11.4536C20.5919 11.5578 24.7177 16.2212 24.5488 21.1825C24.4842 23.0818 22.9196 24.6025 21.0098 24.6025H18.5157C18.273 24.6025 18.0762 24.7993 18.0762 25.0419C18.0762 25.2847 18.273 25.4814 18.5157 25.4814H21.0096C22.4627 25.4814 23.7543 24.7764 24.5604 23.6906C27.1095 24.756 29.9415 22.8819 29.9415 20.1095C29.9415 18.638 29.1115 17.3105 27.8287 16.6541Z" fill="black"></path></g><defs><clipPath id="clip0"><rect width="30" height="30" fill="white" transform="translate(0 0.5)"></rect></clipPath></defs></svg> 