<?xml version="1.0" encoding="UTF-8"?> <svg xmlns="http://www.w3.org/2000/svg" width="60" height="60" viewBox="0 0 60 60" fill="none"><circle opacity="0.1" cx="30" cy="30" r="30" fill="#E31E24"></circle><path d="M44.125 31.2493H43.5V26.8743C43.5 25.1495 42.2889 23.7033 40.6726 23.3388L37.8279 18.4116C37.4111 17.6896 36.7379 17.173 35.9325 16.9572C35.3638 16.8049 34.7774 16.8161 34.2276 16.9821L32.1591 14.9135C30.9419 13.6965 28.9616 13.6963 27.7444 14.9135L19.4088 23.2493H17.625C15.6262 23.2493 14 24.8755 14 26.8743V42.3743C14 44.3731 15.6262 45.9993 17.625 45.9993H25.9375C26.2826 45.9993 26.5625 45.7194 26.5625 45.3743C26.5625 45.0291 26.2826 44.7493 25.9375 44.7493H17.625C16.3154 44.7493 15.25 43.6838 15.25 42.3743V26.8743C15.25 25.5647 16.3154 24.4993 17.625 24.4993H39.875C41.1846 24.4993 42.25 25.5647 42.25 26.8743V31.2493H37.625C35.7641 31.2493 34.25 32.7633 34.25 34.6243C34.25 36.4852 35.7641 37.9993 37.625 37.9993H42.25V42.3743C42.25 43.6838 41.1846 44.7493 39.875 44.7493H31.5625C31.2174 44.7493 30.9375 45.0291 30.9375 45.3743C30.9375 45.7194 31.2174 45.9993 31.5625 45.9993H39.875C41.8738 45.9993 43.5 44.3731 43.5 42.3743V37.9993H44.125C45.1589 37.9993 46 37.1581 46 36.1243V33.1243C46 32.0905 45.1589 31.2493 44.125 31.2493ZM35.609 18.1646C36.0919 18.294 36.4955 18.6037 36.7454 19.0366L39.1776 23.2493H25.7058L34.1888 18.3516C34.6217 18.1017 35.1259 18.0352 35.609 18.1646ZM28.6284 15.7975C28.9818 15.444 29.4519 15.2493 29.9517 15.2493C30.4517 15.2493 30.9218 15.444 31.2752 15.7975L33.0459 17.5681L23.2059 23.2493H21.1766L28.6284 15.7975ZM44.75 36.1243C44.75 36.4689 44.4696 36.7493 44.125 36.7493H37.625C36.4533 36.7493 35.5 35.796 35.5 34.6243C35.5 33.4525 36.4533 32.4993 37.625 32.4993H44.125C44.4696 32.4993 44.75 32.7796 44.75 33.1243V36.1243Z" fill="#E31E24"></path><path d="M37.5205 33.9992C37.3561 33.9992 37.1949 34.066 37.0786 34.1824C36.9624 34.2987 36.8955 34.4592 36.8955 34.6242C36.8955 34.7886 36.9623 34.9499 37.0786 35.066C37.1949 35.1823 37.3561 35.2492 37.5205 35.2492C37.6855 35.2492 37.8461 35.1824 37.9623 35.066C38.0792 34.9499 38.1455 34.7886 38.1455 34.6242C38.1455 34.4599 38.0792 34.2986 37.9623 34.1824C37.8461 34.0661 37.6855 33.9992 37.5205 33.9992Z" fill="#E31E24"></path><path d="M28.75 44.7492C28.5856 44.7492 28.4244 44.816 28.3081 44.9324C28.1919 45.0487 28.125 45.2099 28.125 45.3742C28.125 45.5386 28.1918 45.6999 28.3081 45.816C28.4244 45.9323 28.5856 45.9992 28.75 45.9992C28.9144 45.9992 29.0756 45.9324 29.1918 45.816C29.3081 45.6999 29.375 45.5386 29.375 45.3742C29.375 45.2099 29.3081 45.0486 29.1918 44.9324C29.0756 44.8161 28.9144 44.7492 28.75 44.7492Z" fill="#E31E24"></path></svg> 