<?xml version="1.0" encoding="UTF-8"?> <svg xmlns="http://www.w3.org/2000/svg" width="60" height="60" viewBox="0 0 60 60" fill="none"><circle opacity="0.1" cx="30" cy="30" r="30" fill="#E31E24"></circle><g clip-path="url(#clip0)"><path d="M34.6822 16.5232C34.5743 16.4475 34.4395 16.4207 34.3111 16.4495C34.1824 16.4783 34.0721 16.5598 34.0067 16.6741C34.0035 16.6797 33.9996 16.6848 33.9962 16.69C33.8458 16.9048 33.5487 16.957 33.3338 16.8069C33.1217 16.6585 32.8294 16.7097 32.681 16.9219L31.9979 17.8977C31.8494 18.1099 31.901 18.4021 32.1129 18.5505C32.1949 18.6079 32.2886 18.6355 32.3814 18.6355C32.5291 18.6355 32.6746 18.5657 32.7657 18.4356L33.2259 17.7781C33.658 17.8984 34.1275 17.8057 34.4815 17.5269L35.1729 18.011C35.3851 18.1594 35.6771 18.1079 35.8258 17.896C35.9742 17.6838 35.9227 17.3916 35.7105 17.2432L34.6822 16.5232Z" fill="#E31E24"></path><path d="M39.8664 22.4277L39.4062 23.085C39.2577 23.2971 39.3093 23.5893 39.5212 23.7378C39.6032 23.7952 39.697 23.8225 39.7897 23.8225C39.9374 23.8225 40.0829 23.7529 40.174 23.6225L40.8574 22.647C41.0058 22.4348 40.9543 22.1426 40.7424 21.9941C40.5275 21.8437 40.475 21.5466 40.6257 21.3315C40.6293 21.3264 40.6328 21.3213 40.6369 21.3166C40.7219 21.2158 40.7607 21.0842 40.7436 20.9536C40.7267 20.823 40.6557 20.7053 40.5478 20.6299L39.5195 19.9099C39.3073 19.7615 39.0151 19.813 38.8666 20.0251C38.718 20.2371 38.7697 20.5295 38.9816 20.678L39.673 21.1619C39.5319 21.5901 39.6054 22.0627 39.8664 22.4277Z" fill="#E31E24"></path><path d="M37.3787 32.9587C37.6013 32.9587 37.8081 33.0479 37.9609 33.21C38.1387 33.3979 38.4353 33.4065 38.6235 33.2288C38.812 33.051 38.8203 32.7544 38.6426 32.5662C38.3157 32.22 37.855 32.0212 37.3787 32.0212C36.4202 32.0212 35.6406 32.801 35.6406 33.7595C35.6406 34.7178 36.4202 35.4976 37.3787 35.4976C37.843 35.4976 38.2796 35.3169 38.6077 34.9885C38.7908 34.8054 38.7908 34.5085 38.6077 34.3257C38.4248 34.1426 38.1279 34.1426 37.9448 34.3257C37.7937 34.4768 37.5925 34.5601 37.3787 34.5601C36.9373 34.5601 36.5781 34.2009 36.5781 33.7595C36.5781 33.3179 36.9373 32.9587 37.3787 32.9587Z" fill="#E31E24"></path><path d="M41.5525 30.4575V26.7031C41.5525 25.4285 40.5154 24.3914 39.2407 24.3914H36.7532C36.8987 23.1345 36.4883 22.0291 35.6226 21.4229C34.8892 20.9094 33.939 20.8174 32.9468 21.1636C32.009 21.491 31.1367 22.179 30.4912 23.1009C30.2053 23.5088 29.9778 23.9414 29.8127 24.3914H26.761L33.3206 15.0235L42.4229 21.3968L41.0361 23.3775C40.8877 23.5896 40.9392 23.8819 41.1511 24.0303C41.3633 24.1787 41.6555 24.1272 41.804 23.9151L43.3157 21.7561C43.5435 21.4317 43.4646 20.9822 43.1396 20.7542L33.6799 14.1306C33.5227 14.0203 33.3318 13.9778 33.1426 14.011C32.9534 14.0445 32.7886 14.1492 32.678 14.3067L30.5083 17.4055V15.5369C30.5083 15.1402 30.1855 14.8174 29.7888 14.8174H18.5457C18.1489 14.8174 17.8262 15.1402 17.8262 15.5369V18.103C17.8262 18.3621 18.0361 18.5718 18.2949 18.5718C18.554 18.5718 18.7637 18.3621 18.7637 18.103V15.7551H20.1218V24.3911H18.8743C18.8374 24.3911 18.8005 24.3921 18.7637 24.3938V19.978C18.7637 19.7193 18.554 19.5093 18.2949 19.5093C18.0361 19.5093 17.8262 19.7193 17.8262 19.978V24.6428C17.0769 25.0257 16.5625 25.8054 16.5625 26.7031V40.8157C16.5625 42.0904 17.5996 43.1275 18.8743 43.1275H22.3743C22.6333 43.1275 22.843 42.9177 22.843 42.6587C22.843 42.3999 22.6333 42.19 22.3743 42.19H18.8743C18.1165 42.19 17.5 41.5735 17.5 40.8157V26.7031C17.5 26.1026 17.8872 25.5908 18.4248 25.4043C18.4368 25.4009 18.4487 25.397 18.4602 25.3926C18.5911 25.3511 18.7302 25.3286 18.8745 25.3286H39.2407C39.9985 25.3286 40.6152 25.9453 40.6152 26.7031V30.3926H37.2593C35.4028 30.3926 33.8923 31.9029 33.8923 33.7595C33.8923 35.616 35.4028 37.1262 37.2593 37.1262H40.6152V40.8157C40.6152 41.5735 39.9985 42.19 39.2407 42.19H35.6589C35.3999 42.19 35.1902 42.3999 35.1902 42.6587C35.1902 42.9177 35.3999 43.1275 35.6589 43.1275H39.2407C40.5154 43.1275 41.5527 42.0904 41.5527 40.8157V37.0613C42.6133 36.8096 43.4045 35.8545 43.4045 34.7183V32.8008C43.4043 31.6643 42.613 30.7093 41.5525 30.4575ZM31.259 23.6389C32.3281 22.1121 34.0444 21.4627 35.085 22.1909C35.6843 22.6106 35.9482 23.4341 35.8079 24.3911H30.8259C30.9448 24.1323 31.0894 23.8806 31.259 23.6389ZM29.5708 18.7444L25.6167 24.3914H23.3069V15.7549H29.5708V18.7444ZM21.0593 15.7549H22.3694V24.3911H21.0593V15.7549ZM42.4668 34.718C42.4668 35.5291 41.8071 36.1887 40.9961 36.1887H37.2593C35.9197 36.1887 34.8298 35.0989 34.8298 33.7593C34.8298 32.4199 35.9197 31.3301 37.2593 31.3301H40.9961C41.8071 31.3301 42.4668 31.9898 42.4668 32.8008V34.718Z" fill="#E31E24"></path><path d="M29.0576 34.6736C25.9351 34.6736 23.3945 37.2141 23.3945 40.3369C23.3945 43.4595 25.9351 46 29.0576 46C32.1804 46 34.7209 43.4595 34.7209 40.3369C34.7209 37.2141 32.1804 34.6736 29.0576 34.6736ZM29.0576 45.0625C26.4519 45.0625 24.332 42.9426 24.332 40.3369C24.332 37.731 26.4519 35.6111 29.0576 35.6111C31.6636 35.6111 33.7834 37.731 33.7834 40.3369C33.7834 42.9426 31.6636 45.0625 29.0576 45.0625Z" fill="#E31E24"></path><path d="M29.4573 39.8681H28.6577C28.4221 39.8681 28.2305 39.6765 28.2305 39.4409C28.2305 39.2053 28.4221 39.0136 28.6577 39.0136H30.1877C30.4465 39.0136 30.6565 38.8036 30.6565 38.5449C30.6565 38.2861 30.4465 38.0761 30.1877 38.0761H29.6123V37.6799C29.6123 37.4211 29.4023 37.2111 29.1436 37.2111C28.8848 37.2111 28.6748 37.4211 28.6748 37.6799V38.0761H28.6577C27.9053 38.0761 27.293 38.6884 27.293 39.4409C27.293 40.1933 27.9053 40.8056 28.6577 40.8056H29.4573C29.6929 40.8056 29.8843 40.997 29.8843 41.2326C29.8843 41.4682 29.6929 41.6599 29.4573 41.6599H27.9272C27.6682 41.6599 27.4585 41.8698 27.4585 42.1286C27.4585 42.3874 27.6682 42.5974 27.9272 42.5974H28.6748V42.9936C28.6748 43.2524 28.8848 43.4623 29.1436 43.4623C29.4026 43.4623 29.6123 43.2524 29.6123 42.9936V42.5886C30.292 42.5112 30.822 41.9328 30.822 41.2326C30.8218 40.4802 30.2097 39.8681 29.4573 39.8681Z" fill="#E31E24"></path></g><defs><clipPath id="clip0"><rect width="32" height="32" fill="white" transform="translate(14 14)"></rect></clipPath></defs></svg> 