<?xml version="1.0" encoding="UTF-8"?> <svg xmlns="http://www.w3.org/2000/svg" width="60" height="60" viewBox="0 0 60 60" fill="none"><circle opacity="0.1" cx="30" cy="30" r="30" fill="#E31E24"></circle><g clip-path="url(#clip0)"><path d="M17.7317 16.6795C17.7317 16.9739 17.493 17.2126 17.1986 17.2126C16.9042 17.2126 16.6655 16.9739 16.6655 16.6795C16.6655 16.3851 16.9042 16.1464 17.1986 16.1464C17.493 16.1464 17.7317 16.3851 17.7317 16.6795Z" fill="#E31E24"></path><path d="M19.864 16.6795C19.864 16.9739 19.6254 17.2126 19.331 17.2126C19.0365 17.2126 18.7979 16.9739 18.7979 16.6795C18.7979 16.3851 19.0365 16.1464 19.331 16.1464C19.6254 16.1464 19.864 16.3851 19.864 16.6795Z" fill="#E31E24"></path><path d="M21.9969 16.6795C21.9969 16.9739 21.7582 17.2126 21.4638 17.2126C21.1694 17.2126 20.9307 16.9739 20.9307 16.6795C20.9307 16.3851 21.1694 16.1464 21.4638 16.1464C21.7582 16.1464 21.9969 16.3851 21.9969 16.6795Z" fill="#E31E24"></path><path d="M25.1952 16.1464C24.9008 16.1464 24.6621 16.3851 24.6621 16.6795C24.6621 16.9739 24.9008 17.2126 25.1952 17.2126H38.5227C38.8171 17.2126 39.0558 16.9739 39.0558 16.6795C39.0558 16.3851 38.8171 16.1464 38.5227 16.1464H25.1952Z" fill="#E31E24"></path><path d="M21.6872 40.1359H15.0662V19.345H38.5226C38.817 19.345 39.0557 19.1063 39.0557 18.8119C39.0557 18.5175 38.817 18.2788 38.5226 18.2788H15.0662V15.0802H40.1219V21.7013C40.1219 21.9957 40.3606 22.2344 40.655 22.2344C40.9494 22.2344 41.1881 21.9957 41.1881 21.7013V14.5471C41.1881 14.2527 40.9494 14.014 40.655 14.014H14.5331C14.2387 14.014 14 14.2527 14 14.5471V40.669C14 40.9634 14.2387 41.2021 14.5331 41.2021H21.6872C21.9816 41.2021 22.2203 40.9634 22.2203 40.669C22.2203 40.3746 21.9816 40.1359 21.6872 40.1359Z" fill="#E31E24"></path><path d="M45.8314 43.5797L42.8994 40.669L44.616 39.5229C44.7928 39.4073 44.8849 39.1983 44.8506 38.9898C44.8149 38.7821 44.6603 38.615 44.456 38.5632L37.2966 36.6601C37.1134 36.6125 36.9189 36.6653 36.7851 36.7991C36.6513 36.9329 36.5985 37.1273 36.6461 37.3106L38.5226 44.4699C38.5744 44.6743 38.7415 44.8289 38.949 44.8645C39.1575 44.8989 39.3668 44.8067 39.4821 44.63L40.655 42.9133L43.5871 45.8454C43.6876 45.945 43.8239 46.0008 43.9656 46C44.1072 46.0008 44.2436 45.945 44.344 45.8454L45.8527 44.3366C45.9509 44.2338 46.004 44.0959 45.9998 43.9537C45.9959 43.8116 45.9353 43.677 45.8314 43.5797ZM43.9442 44.7151L40.9268 41.698C40.8276 41.5993 40.6936 41.5439 40.5538 41.5433H40.5004C40.3421 41.5595 40.1995 41.6454 40.1113 41.7779L39.2582 43.0521L37.9096 37.9236L43.0381 39.2722L41.7639 40.1359C41.6314 40.2241 41.5455 40.3668 41.5294 40.525C41.5148 40.6831 41.5716 40.8395 41.684 40.9514L44.7012 43.9688L43.9442 44.7151Z" fill="#E31E24"></path><path d="M36.1556 42.0069C35.0436 42.4687 33.8608 42.7373 32.6584 42.8014V38.0035C33.4466 38.0219 34.2332 38.0842 35.0147 38.1901C35.3091 38.2312 35.5814 38.0261 35.6225 37.7317C35.6636 37.437 35.4585 37.165 35.1641 37.1239C34.3329 37.0151 33.4963 36.9529 32.6584 36.9373V32.6725H37.9894C37.9623 33.5086 37.8806 34.3421 37.7442 35.1675C37.6955 35.4619 37.8949 35.7399 38.1893 35.7886C38.4837 35.837 38.7617 35.6378 38.8104 35.3432C38.952 34.4594 39.034 33.5671 39.0556 32.6725H42.7873C42.7319 33.8732 42.4723 35.0558 42.0197 36.1696C41.9093 36.4403 42.0376 36.7498 42.3076 36.8626C42.3716 36.8899 42.4403 36.9045 42.5101 36.9052C42.7285 36.9055 42.925 36.7725 43.006 36.5695C43.5752 35.1623 43.8631 33.6572 43.8535 32.1394C43.8548 29.3875 42.8844 26.7235 41.1133 24.6174C38.8875 21.9545 35.5962 20.4143 32.1253 20.4112H31.7414C29.1527 20.4961 26.6639 21.4331 24.6619 23.0767C24.4336 23.2636 24.4003 23.6002 24.5872 23.8284C24.7744 24.0565 25.1107 24.09 25.339 23.9029C26.2651 23.141 27.3118 22.5392 28.4363 22.1224C27.5471 23.09 26.849 24.2168 26.3786 25.4436C25.4697 25.1857 24.5792 24.867 23.7131 24.4893C23.5018 24.4001 23.2568 24.4558 23.1053 24.6281C23.1053 24.6281 23.0785 24.6281 23.0678 24.6601C21.3431 26.7647 20.401 29.4023 20.4023 32.1235C20.4026 34.8499 21.3569 37.4901 23.0999 39.5869L23.1373 39.6293C25.3543 42.3078 28.6482 43.861 32.1253 43.8676C33.645 43.8686 35.15 43.5716 36.5554 42.9932C36.7433 42.9302 36.8808 42.768 36.912 42.5723C36.9435 42.3765 36.8636 42.1795 36.7048 42.0608C36.546 41.9421 36.3344 41.9215 36.1556 42.0069ZM31.5922 42.7535C29.8917 42.4814 28.3936 40.8876 27.4287 38.5418C28.7945 38.2206 30.1897 38.0399 31.5922 38.0035V42.7535ZM31.5922 36.9373C30.0637 36.9688 28.5428 37.1635 27.0557 37.5183C26.5645 35.9484 26.2969 34.3171 26.2612 32.6725H31.5922V36.9373ZM21.4899 32.6725H25.195C25.2284 34.4162 25.5084 36.1462 26.0267 37.8116C25.2367 38.0422 24.4607 38.3182 23.7025 38.6378C22.3708 36.9232 21.5984 34.8408 21.4899 32.6725ZM36.7899 25.7422C35.4343 26.0592 34.05 26.2378 32.6584 26.2753V21.5308C34.3431 21.8132 35.825 23.4125 36.7899 25.7422ZM31.5922 31.6063H26.2612C26.2945 29.9557 26.564 28.3187 27.0609 26.7443C28.5456 27.1043 30.0648 27.3045 31.5922 27.3415V31.6063ZM32.6584 27.3415C34.1744 27.3089 35.6826 27.1158 37.1577 26.7657C37.6528 28.333 37.922 29.963 37.9574 31.6063H32.6584V27.3415ZM42.7873 31.6063H39.0556C39.0239 29.8646 38.7456 28.1362 38.2294 26.4726C39.0306 26.2425 39.8175 25.9647 40.5857 25.6409C41.9135 27.3568 42.6819 29.4393 42.7873 31.6063ZM39.8553 24.7879C39.2048 25.0495 38.541 25.2773 37.8668 25.4704C37.3993 24.2348 36.697 23.1014 35.7984 22.1331C37.3262 22.7003 38.7045 23.6082 39.8287 24.7879H39.8553ZM31.5922 21.5253V26.2753C30.1897 26.2404 28.7948 26.0618 27.4287 25.7422C28.3936 23.3911 29.8917 21.7973 31.5922 21.5253ZM25.195 31.6063H21.4633C21.5734 29.44 22.3416 27.3592 23.665 25.6409C24.4251 25.9606 25.2031 26.2365 25.9947 26.4671C25.4863 28.1338 25.2172 29.8641 25.195 31.6063ZM24.4219 39.4908C25.0623 39.2337 25.7154 39.0095 26.3786 38.819C26.8474 40.0395 27.5419 41.1609 28.4256 42.1243C26.9078 41.5631 25.5384 40.6622 24.4219 39.4908Z" fill="#E31E24"></path><path d="M44.4291 27.0109C44.5108 27.2101 44.7042 27.3405 44.9195 27.3415C44.9895 27.3433 45.0588 27.3288 45.122 27.2988C45.392 27.1859 45.5203 26.8766 45.4099 26.6059C44.8612 25.2794 44.1133 24.0445 43.1921 22.9435C42.9966 22.7685 42.7028 22.762 42.4995 22.9278C42.2964 23.0939 42.2441 23.3834 42.3766 23.6098C43.2286 24.6333 43.9207 25.7802 44.4291 27.0109Z" fill="#E31E24"></path><path d="M21.0526 22.9435C18.9064 25.5275 17.7317 28.7805 17.7314 32.1394C17.7314 32.4338 17.9701 32.6725 18.2645 32.6725C18.5589 32.6725 18.7976 32.4338 18.7976 32.1394C18.7945 29.0241 19.8828 26.0062 21.8736 23.6098C22.0621 23.3831 22.0311 23.0466 21.8044 22.8581C21.5777 22.6696 21.2411 22.7009 21.0526 22.9276V22.9435Z" fill="#E31E24"></path></g><defs><clipPath id="clip0"><rect width="32" height="32" fill="white" transform="translate(14 14)"></rect></clipPath></defs></svg> 