<?xml version="1.0" encoding="UTF-8"?> <svg xmlns="http://www.w3.org/2000/svg" width="60" height="60" viewBox="0 0 60 60" fill="none"><circle opacity="0.1" cx="30" cy="30" r="30" fill="#E31E24"></circle><g clip-path="url(#clip0)"><path d="M34.3985 21.7208C34.5184 21.7208 34.6384 21.6751 34.73 21.5835L37.0491 19.2645C37.2321 19.0814 37.2321 18.7846 37.0491 18.6016C36.8659 18.4185 36.5692 18.4185 36.3861 18.6016L34.067 20.9207C33.8839 21.1037 33.8839 21.4005 34.067 21.5835C34.1585 21.6751 34.2785 21.7208 34.3985 21.7208Z" fill="#E31E24"></path><path d="M32.8472 20.1698C33.1061 20.1698 33.3159 19.9599 33.3159 19.701V17.5636C33.3159 17.3047 33.1061 17.0948 32.8472 17.0948C32.5882 17.0948 32.3784 17.3047 32.3784 17.5636V19.701C32.3784 19.9599 32.5883 20.1698 32.8472 20.1698Z" fill="#E31E24"></path><path d="M35.4805 22.8032C35.4805 23.062 35.6903 23.2719 35.9492 23.2719H38.0867C38.3456 23.2719 38.5554 23.062 38.5554 22.8032C38.5554 22.5443 38.3456 22.3344 38.0867 22.3344H35.9492C35.6903 22.3344 35.4805 22.5443 35.4805 22.8032Z" fill="#E31E24"></path><path d="M42.194 32.7118C42.1498 32.1962 41.8812 31.7289 41.457 31.4296C39.9175 30.3436 38.5538 28.9712 37.4038 27.3505C37.1053 26.9298 36.6397 26.6637 36.1264 26.6203C35.6145 26.5773 35.1126 26.7608 34.7492 27.1242L33.0658 28.8075L33.0658 28.8076L33.0657 28.8077L32.3868 29.4865C32.1729 29.7005 31.8537 29.7719 31.5736 29.6683C29.5782 28.9303 27.2693 26.6216 26.5319 24.6267C26.4284 24.3468 26.4998 24.0277 26.7138 23.8137L29.0763 21.4512C29.4396 21.0878 29.6232 20.5858 29.5801 20.074C29.5368 19.5607 29.2707 19.095 28.85 18.7965C28.1787 18.3202 27.5421 17.8007 26.9577 17.2524C26.769 17.0753 26.4723 17.0847 26.2952 17.2735C26.118 17.4623 26.1275 17.7589 26.3162 17.936C26.9316 18.5134 27.6015 19.0602 28.3074 19.561C28.5025 19.6994 28.6258 19.9151 28.6458 20.1527C28.6658 20.3888 28.581 20.6205 28.4133 20.7882L27.0613 22.1402L21.4335 16.5123L22.7735 15.1723C22.9437 15.0022 23.1693 14.92 23.4085 14.9403C23.648 14.9609 23.8652 15.086 24.0047 15.2837C24.3073 15.7127 24.6373 16.1366 24.9853 16.5437C25.1536 16.7405 25.4495 16.7635 25.6462 16.5953C25.843 16.427 25.8661 16.1312 25.6978 15.9344C25.3685 15.5493 25.0567 15.1486 24.7707 14.7433C24.4715 14.3191 24.0042 14.0505 23.4885 14.0063C22.9768 13.9627 22.4742 14.1458 22.1106 14.5094L19.1807 17.4393C18.206 18.4142 17.7075 19.7615 17.8133 21.136C17.8734 21.9171 18.1318 22.6807 18.5607 23.3442C21.9291 28.5558 25.9208 32.8273 30.4526 36.0778L28.1789 36.9829C27.2153 37.3665 26.5926 38.2846 26.5926 39.3218C26.5926 40.7098 27.7218 41.8391 29.11 41.8391H37.1977C38.0688 41.8391 38.7775 42.5478 38.7775 43.419V43.4826C38.7775 44.3537 38.0688 45.0625 37.1977 45.0625H19.1593C18.9004 45.0625 18.6905 45.2723 18.6905 45.5312C18.6905 45.7901 18.9004 46 19.1593 46H37.1977C38.5858 46 39.715 44.8707 39.715 43.4826V43.419C39.715 42.0308 38.5858 40.9016 37.1977 40.9016H29.11C28.2388 40.9016 27.5301 40.1929 27.5301 39.3218C27.5301 38.6708 27.9208 38.0946 28.5257 37.8539L31.3738 36.7201C31.8748 37.0588 32.3822 37.3856 32.8958 37.6999C33.5235 38.084 34.242 38.3191 34.9735 38.3798C34.9867 38.3809 34.9998 38.3813 35.0128 38.3813C35.2541 38.3813 35.4591 38.1961 35.4794 37.9513C35.5008 37.6933 35.309 37.4668 35.051 37.4454C34.4647 37.3968 33.8886 37.2083 33.3852 36.9002C27.9554 33.5775 23.2327 28.8455 19.348 22.8353C19.0037 22.3025 18.7962 21.69 18.748 21.064C18.6633 19.9628 19.0627 18.8832 19.8437 18.1022L20.7706 17.1753L26.3985 22.8031L26.0508 23.1507C25.5789 23.6227 25.4226 24.3297 25.6525 24.9518C26.4852 27.2041 28.9955 29.7144 31.2484 30.5476C31.8707 30.7777 32.5778 30.6215 33.0498 30.1494L33.3973 29.802L39.0251 35.4298L38.0982 36.3566C37.7072 36.7476 37.2453 37.0424 36.7253 37.2328C36.4822 37.3218 36.3573 37.591 36.4463 37.8341C36.5158 38.024 36.6953 38.1418 36.8865 38.1418C36.94 38.1418 36.9945 38.1327 37.0476 38.1131C37.6966 37.8755 38.273 37.5077 38.7611 37.0196L40.0189 35.7618C40.0191 35.7617 40.0193 35.7615 40.0195 35.7613C40.0197 35.7611 40.0199 35.7608 40.0201 35.7607L41.691 34.0897C42.0546 33.7262 42.2379 33.2239 42.194 32.7118ZM41.028 33.4268L39.688 34.7668L34.0602 29.139L35.4122 27.787C35.5799 27.6193 35.8117 27.5348 36.0476 27.5545C36.2852 27.5746 36.5008 27.6979 36.6392 27.893C37.8509 29.6006 39.29 31.0482 40.9166 32.1957C41.1142 32.3351 41.2394 32.5525 41.2599 32.7918C41.2805 33.0313 41.1982 33.2568 41.028 33.4268Z" fill="#E31E24"></path></g><defs><clipPath id="clip0"><rect width="32" height="32" fill="white" transform="translate(14 14)"></rect></clipPath></defs></svg> 