<?xml version="1.0" encoding="UTF-8"?> <svg xmlns="http://www.w3.org/2000/svg" width="60" height="60" viewBox="0 0 60 60" fill="none"><circle opacity="0.1" cx="30" cy="30" r="30" fill="#E31E24"></circle><path d="M41.8384 34.8158L37.3481 37.2777C37.1525 36.6911 36.7781 36.1805 36.2775 35.8176C35.7769 35.4546 35.1752 35.2576 34.5568 35.254H31.091C30.5265 35.253 29.9696 35.1232 29.4628 34.8743L29.1054 34.6985C28.0908 34.1957 26.9553 33.9884 25.8285 34.1003C24.7017 34.2122 23.6292 34.6387 22.7333 35.3313C22.7251 35.3375 22.7172 35.3441 22.7095 35.351L21.8466 36.1323C21.4967 36.4474 21.079 36.678 20.6258 36.8063C20.5866 36.7738 20.5412 36.7497 20.4924 36.7353C20.4435 36.721 20.3923 36.7167 20.3417 36.7228L17.0086 37.1428C16.9141 37.1548 16.8278 37.2022 16.767 37.2755C16.7062 37.3488 16.6756 37.4425 16.6813 37.5375L17.1126 44.8125C17.1182 44.908 17.1601 44.9977 17.2297 45.0633C17.2993 45.1289 17.3913 45.1654 17.487 45.1654C17.5034 45.1654 17.5197 45.1643 17.536 45.1621L22.5427 44.5021C22.5947 44.4953 22.6446 44.4776 22.6893 44.4503C22.734 44.423 22.7725 44.3866 22.8023 44.3435C22.8321 44.3004 22.8525 44.2515 22.8622 44.2C22.8719 44.1485 22.8708 44.0956 22.8588 44.0446L22.8433 43.9786L25.4324 42.3134C25.7757 42.1194 26.1807 42.0659 26.5626 42.1639L31.7963 43.1451C33.2114 43.4025 34.6718 43.1928 35.9573 42.5476L45.0143 36.2255C45.0918 36.1714 45.146 36.0899 45.166 35.9975C45.1861 35.9051 45.1704 35.8085 45.1223 35.7271C44.8022 35.1766 44.2795 34.7731 43.6659 34.6028C43.0523 34.4325 42.3964 34.5089 41.8384 34.8158ZM17.837 44.3656L17.4506 37.8432L20.1213 37.5066L22.0275 43.8132L17.837 44.3656ZM35.8802 41.6912C35.6596 41.8473 35.422 41.9777 35.1718 42.0799C34.1447 42.4919 33.0221 42.6055 31.9332 42.4077L26.736 41.4341C26.166 41.2909 25.5627 41.3739 25.0527 41.6659C25.0468 41.6693 25.041 41.6728 25.0353 41.6764L22.6323 43.2219L20.9047 37.5063C21.4404 37.3424 21.9337 37.0633 22.3501 36.6885L23.2013 35.9175C23.9862 35.3142 24.9245 34.9433 25.9097 34.8467C26.8949 34.7502 27.8874 34.932 28.7743 35.3714L29.1317 35.5473C29.7416 35.8467 30.4117 36.0029 31.091 36.004H34.5568C35.6392 36.004 36.5416 36.8048 36.7247 37.8563L34.1946 37.7399C33.2853 37.6981 32.3742 37.7406 31.4727 37.8668C31.381 37.8786 31.2966 37.9234 31.2353 37.9927C31.174 38.062 31.1399 38.1512 31.1393 38.2438C31.1399 38.2971 31.1519 38.3497 31.1744 38.398C31.197 38.4463 31.2295 38.4893 31.27 38.524C31.3104 38.5588 31.3578 38.5845 31.409 38.5995C31.4601 38.6144 31.5139 38.6183 31.5667 38.6109C32.4256 38.4903 33.2937 38.4495 34.1601 38.4891L37.1163 38.6252C37.1255 38.6256 37.1347 38.6257 37.144 38.6252C37.189 38.6242 37.2335 38.6149 37.2752 38.5977C37.3441 38.5694 37.4031 38.5213 37.4446 38.4595C37.4861 38.3976 37.5083 38.3248 37.5083 38.2503C37.5083 38.1816 37.5052 38.1139 37.5007 38.0464L42.199 35.4729C42.5338 35.2888 42.9211 35.2239 43.2976 35.2886C43.674 35.3533 44.0174 35.5439 44.2715 35.8291L35.8802 41.6912Z" fill="#E31E24"></path><path d="M19.7992 31.8636H19.798C19.7487 31.8636 19.6999 31.8732 19.6544 31.892C19.6089 31.9107 19.5675 31.9383 19.5326 31.9731C19.4622 32.0433 19.4225 32.1386 19.4224 32.238C19.4222 32.3375 19.4616 32.4329 19.5318 32.5034C19.602 32.5738 19.6973 32.6135 19.7968 32.6136L20.163 32.6148H20.1641C20.2636 32.615 20.359 32.5756 20.4295 32.5054C20.4999 32.4352 20.5396 32.3399 20.5397 32.2404C20.5399 32.141 20.5005 32.0455 20.4303 31.9751C20.3601 31.9047 20.2648 31.865 20.1653 31.8648L19.7992 31.8636Z" fill="#E31E24"></path><path d="M21.1554 32.618L23.7161 32.6301H23.7179C23.8173 32.6303 23.9128 32.5911 23.9833 32.5209C24.0538 32.4507 24.0935 32.3554 24.0938 32.256C24.094 32.1565 24.0547 32.0611 23.9845 31.9906C23.9144 31.9201 23.8191 31.8803 23.7196 31.8801L21.1589 31.868H21.1571C21.0577 31.8678 20.9622 31.9071 20.8917 31.9773C20.8212 32.0474 20.7815 32.1427 20.7813 32.2422C20.781 32.3416 20.8203 32.4371 20.8905 32.5076C20.9606 32.5781 21.0559 32.6178 21.1554 32.618Z" fill="#E31E24"></path><path d="M22.5794 30.8318H22.5806C22.6801 30.832 22.7756 30.7926 22.846 30.7224C22.9164 30.6522 22.9561 30.5569 22.9562 30.4574C22.9564 30.3579 22.917 30.2625 22.8468 30.1921C22.7766 30.1216 22.6813 30.082 22.5818 30.0818L22.2158 30.0806H22.2145C22.115 30.0804 22.0196 30.1198 21.9491 30.19C21.8787 30.2602 21.839 30.3555 21.8389 30.455C21.8387 30.5544 21.8781 30.6499 21.9483 30.7203C22.0185 30.7907 22.1138 30.8304 22.2133 30.8306L22.5794 30.8318Z" fill="#E31E24"></path><path d="M21.2217 30.8274C21.3212 30.8277 21.4167 30.7885 21.4872 30.7184C21.5578 30.6482 21.5975 30.553 21.5978 30.4535C21.5981 30.3541 21.5589 30.2586 21.4888 30.188C21.4186 30.1175 21.3234 30.0777 21.2239 30.0774L19.2019 30.0654H19.1998C19.1505 30.0653 19.1018 30.0749 19.0562 30.0936C19.0107 30.1123 18.9692 30.1398 18.9343 30.1745C18.8994 30.2092 18.8717 30.2505 18.8527 30.2959C18.8337 30.3414 18.8239 30.3901 18.8237 30.4394C18.8236 30.4886 18.8332 30.5374 18.8519 30.5829C18.8706 30.6285 18.8981 30.6699 18.9328 30.7048C18.9675 30.7398 19.0088 30.7675 19.0542 30.7865C19.0997 30.8054 19.1484 30.8153 19.1977 30.8154L21.2197 30.8274H21.2217Z" fill="#E31E24"></path><path d="M40.992 40.253L40.1748 40.8293C40.1341 40.8575 40.0993 40.8935 40.0726 40.9351C40.0458 40.9768 40.0276 41.0234 40.0189 41.0721C40.0103 41.1209 40.0114 41.1709 40.0222 41.2192C40.0329 41.2676 40.0532 41.3133 40.0817 41.3538C40.1103 41.3943 40.1466 41.4287 40.1885 41.455C40.2304 41.4814 40.2771 41.4992 40.326 41.5074C40.3748 41.5157 40.4248 41.5141 40.473 41.5029C40.5213 41.4917 40.5668 41.4711 40.607 41.4422L41.4243 40.8659C41.5046 40.8082 41.5588 40.7211 41.5752 40.6236C41.5917 40.5261 41.5689 40.426 41.5119 40.3452C41.4549 40.2644 41.3683 40.2094 41.2709 40.1921C41.1736 40.1748 41.0733 40.1967 40.992 40.253Z" fill="#E31E24"></path><path d="M37.7231 42.5583L36.906 43.1345C36.8657 43.1629 36.8314 43.1989 36.8051 43.2406C36.7788 43.2822 36.7609 43.3286 36.7526 43.3771C36.7442 43.4256 36.7454 43.4753 36.7562 43.5234C36.7671 43.5714 36.7872 43.6169 36.8156 43.6571C36.844 43.6974 36.88 43.7316 36.9216 43.7579C36.9633 43.7843 37.0097 43.8021 37.0582 43.8105C37.1067 43.8189 37.1564 43.8177 37.2045 43.8068C37.2525 43.796 37.298 43.7758 37.3382 43.7475L38.1554 43.1711C38.1961 43.143 38.2309 43.107 38.2576 43.0653C38.2843 43.0236 38.3026 42.9771 38.3112 42.9283C38.3199 42.8795 38.3188 42.8295 38.308 42.7812C38.2972 42.7329 38.277 42.6871 38.2484 42.6467C38.2199 42.6062 38.1836 42.5718 38.1417 42.5454C38.0998 42.519 38.053 42.5012 38.0042 42.493C37.9554 42.4848 37.9054 42.4863 37.8571 42.4975C37.8089 42.5087 37.7634 42.5294 37.7231 42.5583Z" fill="#E31E24"></path><path d="M42.6265 39.1004L41.8093 39.6767C41.728 39.734 41.6728 39.8213 41.6559 39.9193C41.6389 40.0173 41.6616 40.118 41.7189 40.1993C41.7763 40.2806 41.8635 40.3358 41.9615 40.3527C42.0595 40.3697 42.1602 40.347 42.2415 40.2897L43.0588 39.7133C43.1401 39.656 43.1952 39.5688 43.2122 39.4708C43.2291 39.3728 43.2064 39.272 43.1491 39.1907C43.0918 39.1095 43.0045 39.0543 42.9065 39.0373C42.8085 39.0204 42.7078 39.0431 42.6265 39.1004Z" fill="#E31E24"></path><path d="M39.3574 41.4056L38.5402 41.9819C38.4996 42.0102 38.465 42.0462 38.4384 42.0878C38.4118 42.1295 38.3937 42.176 38.3851 42.2247C38.3765 42.2734 38.3776 42.3233 38.3884 42.3715C38.3992 42.4198 38.4194 42.4654 38.4479 42.5058C38.4764 42.5462 38.5126 42.5806 38.5544 42.607C38.5963 42.6333 38.6429 42.6512 38.6916 42.6595C38.7404 42.6677 38.7903 42.6663 38.8385 42.6552C38.8866 42.6441 38.9322 42.6236 38.9724 42.5949L39.7896 42.0186C39.8302 41.9903 39.8648 41.9543 39.8914 41.9127C39.918 41.871 39.9362 41.8245 39.9447 41.7758C39.9533 41.7271 39.9522 41.6772 39.9414 41.629C39.9306 41.5807 39.9104 41.5351 39.8819 41.4947C39.8534 41.4543 39.8172 41.4199 39.7754 41.3935C39.7336 41.3672 39.6869 41.3493 39.6382 41.341C39.5894 41.3328 39.5396 41.3342 39.4914 41.3453C39.4432 41.3564 39.3977 41.3769 39.3574 41.4056Z" fill="#E31E24"></path><path d="M44.2608 37.9478L43.4437 38.5241C43.4028 38.5522 43.3678 38.5881 43.3408 38.6298C43.3139 38.6715 43.2955 38.7182 43.2867 38.7671C43.2779 38.816 43.2789 38.8661 43.2897 38.9146C43.3004 38.9631 43.3207 39.0089 43.3493 39.0495C43.3779 39.0901 43.4143 39.1246 43.4564 39.151C43.4984 39.1774 43.5453 39.1952 43.5943 39.2033C43.6433 39.2115 43.6934 39.2098 43.7418 39.1984C43.7901 39.187 43.8357 39.1661 43.8759 39.137L44.6931 38.5607C44.7337 38.5325 44.7683 38.4965 44.7949 38.4548C44.8216 38.4132 44.8397 38.3667 44.8483 38.318C44.8568 38.2693 44.8557 38.2194 44.8449 38.1711C44.8341 38.1229 44.8139 38.0772 44.7854 38.0368C44.7569 37.9964 44.7207 37.9621 44.6789 37.9357C44.6371 37.9093 44.5905 37.8915 44.5417 37.8832C44.493 37.8749 44.4431 37.8764 44.3949 37.8875C44.3467 37.8986 44.3012 37.9191 44.261 37.9478H44.2608Z" fill="#E31E24"></path><path d="M35.4614 19.0671C35.3679 19.0333 35.2648 19.038 35.1748 19.0801C35.0847 19.1222 35.0151 19.1984 34.9812 19.2918L34.7345 19.9721C34.7174 20.0185 34.7097 20.0678 34.7117 20.1171C34.7138 20.1664 34.7256 20.2149 34.7464 20.2597C34.7672 20.3044 34.7967 20.3447 34.8331 20.378C34.8695 20.4114 34.9122 20.4372 34.9586 20.4541C35.005 20.4709 35.0543 20.4784 35.1036 20.4761C35.153 20.4739 35.2014 20.4619 35.246 20.4409C35.2907 20.4198 35.3308 20.3902 35.364 20.3536C35.3972 20.3171 35.4229 20.2743 35.4395 20.2278L35.6863 19.5476C35.7031 19.5013 35.7106 19.4521 35.7084 19.4029C35.7061 19.3537 35.6942 19.3054 35.6734 19.2608C35.6525 19.2162 35.623 19.1761 35.5866 19.1429C35.5503 19.1096 35.5077 19.0839 35.4614 19.0671Z" fill="#E31E24"></path><path d="M36.055 18.5308L37.0166 15.8793C37.0337 15.8329 37.0414 15.7837 37.0393 15.7343C37.0373 15.685 37.0255 15.6365 37.0047 15.5917C36.9838 15.547 36.9544 15.5067 36.918 15.4734C36.8816 15.44 36.8389 15.4142 36.7925 15.3973C36.7461 15.3805 36.6968 15.373 36.6474 15.3753C36.5981 15.3775 36.5497 15.3895 36.505 15.4105C36.4603 15.4316 36.4202 15.4612 36.387 15.4978C36.3538 15.5343 36.3282 15.5771 36.3116 15.6236L35.3501 18.275C35.3333 18.3213 35.3258 18.3705 35.328 18.4197C35.3302 18.4689 35.3421 18.5171 35.3629 18.5617C35.3838 18.6064 35.4132 18.6464 35.4496 18.6797C35.4859 18.7129 35.5285 18.7386 35.5748 18.7554C35.6211 18.7722 35.6702 18.7797 35.7194 18.7775C35.7686 18.7753 35.8169 18.7634 35.8615 18.7426C35.9061 18.7217 35.9462 18.6923 35.9794 18.6559C36.0126 18.6196 36.0384 18.5771 36.0552 18.5308L36.055 18.5308Z" fill="#E31E24"></path><path d="M38.4279 16.6764L37.4805 19.2889C37.4466 19.3824 37.4512 19.4855 37.4933 19.5756C37.5354 19.6657 37.6116 19.7354 37.7051 19.7693C37.7986 19.8032 37.9018 19.7986 37.9919 19.7565C38.082 19.7143 38.1516 19.6381 38.1855 19.5446L39.1329 16.9321C39.1668 16.8386 39.1622 16.7355 39.1201 16.6454C39.078 16.5553 39.0018 16.4857 38.9083 16.4517C38.8148 16.4178 38.7116 16.4224 38.6215 16.4646C38.5314 16.5067 38.4618 16.5829 38.4279 16.6764Z" fill="#E31E24"></path><path d="M39.0328 16.1096C39.079 16.1265 39.1282 16.134 39.1774 16.1318C39.2266 16.1297 39.2749 16.1178 39.3195 16.0969C39.3642 16.0761 39.4042 16.0466 39.4374 16.0102C39.4707 15.9738 39.4964 15.9313 39.5131 15.885L39.7116 15.3379C39.7439 15.2448 39.7383 15.1426 39.696 15.0536C39.6536 14.9646 39.5779 14.8958 39.4852 14.8622C39.3925 14.8286 39.2903 14.8328 39.2008 14.874C39.1112 14.9152 39.0414 14.99 39.0066 15.0822L38.8081 15.6292C38.7913 15.6755 38.7838 15.7247 38.786 15.7738C38.7882 15.823 38.8001 15.8713 38.8209 15.9159C38.8418 15.9606 38.8712 16.0006 38.9076 16.0339C38.9439 16.0671 38.9865 16.0928 39.0328 16.1096Z" fill="#E31E24"></path><path d="M39.3775 22.048C39.4238 22.0648 39.473 22.0723 39.5222 22.0701C39.5714 22.0679 39.6197 22.0561 39.6643 22.0352C39.7089 22.0143 39.749 21.9849 39.7822 21.9485C39.8155 21.9122 39.8412 21.8696 39.858 21.8233L40.1047 21.1431C40.1386 21.0496 40.134 20.9464 40.0918 20.8563C40.0497 20.7663 39.9735 20.6966 39.88 20.6627C39.7865 20.6288 39.6834 20.6334 39.5933 20.6755C39.5032 20.7176 39.4335 20.7938 39.3996 20.8873L39.1529 21.5676C39.1361 21.6139 39.1285 21.663 39.1307 21.7122C39.1329 21.7614 39.1448 21.8097 39.1657 21.8543C39.1865 21.899 39.216 21.939 39.2523 21.9723C39.2887 22.0055 39.3312 22.0312 39.3775 22.048Z" fill="#E31E24"></path><path d="M40.4731 20.1263L41.4348 17.475C41.4516 17.4287 41.4591 17.3796 41.457 17.3304C41.4548 17.2811 41.4429 17.2328 41.4221 17.1882C41.4013 17.1436 41.3718 17.1035 41.3355 17.0702C41.2992 17.037 41.2567 17.0112 41.2104 16.9944C41.1641 16.9775 41.1149 16.97 41.0657 16.9722C41.0165 16.9743 40.9682 16.9862 40.9236 17.007C40.8789 17.0279 40.8388 17.0573 40.8056 17.0936C40.7723 17.1299 40.7465 17.1725 40.7297 17.2188L39.7681 19.8705C39.7513 19.9168 39.7438 19.966 39.746 20.0152C39.7482 20.0644 39.7601 20.1126 39.7809 20.1573C39.8018 20.2019 39.8312 20.2419 39.8676 20.2752C39.9039 20.3084 39.9464 20.3341 39.9927 20.3509C40.039 20.3677 40.0882 20.3752 40.1374 20.373C40.1866 20.3708 40.2349 20.359 40.2795 20.3381C40.3241 20.3172 40.3641 20.2878 40.3974 20.2514C40.4306 20.2151 40.4563 20.1726 40.4731 20.1263Z" fill="#E31E24"></path><path d="M17.025 23.0365C17.1022 23.0365 17.1776 23.0127 17.2407 22.9683C17.3039 22.9239 17.3518 22.861 17.3779 22.7884L17.5324 22.3589L20.4972 23.6944C21.3368 24.1217 22.26 24.3596 23.2015 24.3912L23.892 24.4134C23.7104 24.6025 23.5762 24.8319 23.5003 25.0828C23.4244 25.3338 23.409 25.5991 23.4553 25.8571C23.4746 25.9625 23.5167 26.0625 23.5785 26.15C23.6404 26.2375 23.7206 26.3105 23.8136 26.3638C23.9065 26.4171 24.01 26.4495 24.1168 26.4588C24.2235 26.4681 24.331 26.4539 24.4318 26.4174C24.4396 26.4145 24.4475 26.4111 24.4551 26.408L25.5731 25.9161L25.1919 26.9674C25.1213 27.162 25.0898 27.3686 25.0992 27.5754C25.1085 27.7822 25.1585 27.9851 25.2463 28.1725C25.3342 28.36 25.4581 28.5283 25.611 28.6678C25.7639 28.8073 25.9428 28.9153 26.1375 28.9856L39.9406 33.9699C40.3331 34.1117 40.7659 34.0919 41.1438 33.9148C41.5218 33.7377 41.814 33.4179 41.9563 33.0255L44.3336 26.4701C44.4042 26.2754 44.4357 26.0688 44.4263 25.862C44.417 25.6552 44.3669 25.4522 44.279 25.2648C44.1912 25.0773 44.0672 24.909 43.9142 24.7695C43.7612 24.63 43.5823 24.522 43.3875 24.4518L30.1291 19.6643L27.5178 16.984C27.3063 16.7417 27.0293 16.5657 26.7201 16.4771C26.4109 16.3885 26.0828 16.3911 25.775 16.4846C23.0006 17.3336 20.4052 17.3149 19.3655 17.2625L19.4685 16.9763C19.4862 16.9268 19.4934 16.8742 19.4896 16.8218C19.4857 16.7694 19.4709 16.7185 19.446 16.6722C19.4212 16.6259 19.3869 16.5853 19.3454 16.5531C19.3039 16.5209 19.2561 16.4978 19.2051 16.4853L15.982 15.6923C15.9314 15.6798 15.8788 15.678 15.8275 15.6871C15.7762 15.6961 15.7273 15.7157 15.684 15.7447C15.6407 15.7736 15.6039 15.8113 15.576 15.8552C15.548 15.8992 15.5295 15.9485 15.5217 16L14.6293 21.8593C14.6163 21.9447 14.6332 22.032 14.6771 22.1064C14.721 22.1808 14.7893 22.2377 14.8704 22.2676L16.8954 23.0134C16.9369 23.0287 16.9808 23.0365 17.025 23.0365ZM24.1901 25.7053C24.1634 25.5381 24.1839 25.3669 24.2494 25.2108C24.3148 25.0547 24.4225 24.92 24.5603 24.8218L25.0495 24.4747C25.3279 24.5093 25.6033 24.5645 25.8735 24.6399L26.021 24.6811L25.9268 24.9411L24.1901 25.7053ZM29.3301 20.1731L43.1331 25.1574C43.2351 25.1942 43.3289 25.2508 43.409 25.3239C43.4891 25.3969 43.554 25.4851 43.6 25.5833C43.646 25.6815 43.6722 25.7878 43.6771 25.8961C43.682 26.0044 43.6655 26.1126 43.6285 26.2146L41.251 32.7698C41.1762 32.9751 41.0231 33.1424 40.8253 33.2351C40.6274 33.3278 40.4008 33.3384 40.1952 33.2644L26.3922 28.2801C26.2902 28.2433 26.1965 28.1867 26.1164 28.1136C26.0363 28.0406 25.9714 27.9524 25.9254 27.8542C25.8794 27.756 25.8532 27.6497 25.8483 27.5414C25.8434 27.4331 25.8599 27.3249 25.8968 27.2229L26.7453 24.8834L27.2211 25.0164L27.1326 25.2539C27.0932 25.3696 27.1013 25.4962 27.155 25.6059C27.2086 25.7157 27.3036 25.7997 27.4191 25.8396L27.4242 25.8414C28.1291 26.1046 28.3773 26.4388 27.9873 27.7141C27.9514 27.8242 27.9588 27.944 28.0081 28.0489C28.0574 28.1537 28.1448 28.2359 28.2525 28.2786L38.4137 32.0586C38.4613 32.0764 38.5118 32.0854 38.5626 32.0854C38.6522 32.0842 38.7396 32.0571 38.8143 32.0074C38.8889 31.9576 38.9475 31.8874 38.9831 31.8051C39.4206 30.8176 39.764 30.4321 40.6404 30.7579C40.6426 30.7588 40.645 30.7596 40.6473 30.7605C40.7603 30.8039 40.8859 30.8012 40.9969 30.753C41.1079 30.7048 41.1956 30.6149 41.2411 30.5028L42.218 27.8836C42.238 27.8296 42.2472 27.7721 42.2449 27.7145C42.2426 27.6569 42.2289 27.6003 42.2045 27.5481C42.1508 27.4335 42.0546 27.3444 41.9363 27.2996C41.9343 27.2988 41.9324 27.2981 41.9305 27.2974C40.9775 26.9429 41.0035 26.5373 41.3102 25.5524C41.3426 25.4348 41.329 25.3094 41.2721 25.2015C41.2152 25.0937 41.1193 25.0116 41.004 24.972L30.9317 21.225C30.8188 21.1804 30.6933 21.1803 30.5803 21.2247C30.4674 21.2691 30.3755 21.3547 30.3233 21.4643C29.9291 22.3661 29.6306 22.6876 28.8866 22.4799L27.7524 22.1063L28.2742 20.6674C28.349 20.4621 28.5021 20.2948 28.7 20.2021C28.8978 20.1094 29.1244 20.0989 29.33 20.1729L29.3301 20.1731ZM30.8555 23.6371C30.7314 23.3464 30.5142 23.1052 30.238 22.9514C30.5219 22.7118 30.7267 22.3709 30.8978 22.0125L40.5149 25.59C40.2991 26.3372 40.1533 27.3065 41.4135 27.8938L40.6391 29.9703C39.3171 29.6156 38.7346 30.5605 38.4078 31.2563L28.7813 27.675C28.9901 26.9354 29.1688 25.8403 27.9363 25.245L27.946 25.2191L29.1335 25.5511C29.3921 25.6297 29.6677 25.633 29.9281 25.5605C30.1884 25.488 30.4227 25.3428 30.6035 25.1419C30.7842 24.9409 30.9039 24.6926 30.9485 24.4261C30.993 24.1595 30.9607 23.8858 30.8551 23.6369L30.8555 23.6371ZM25.9943 17.2018C26.1649 17.1501 26.3469 17.1492 26.518 17.1991C26.6891 17.2491 26.842 17.3477 26.9581 17.4831C26.963 17.4888 26.9681 17.4944 26.9735 17.4998L28.8168 19.3918C28.5363 19.4339 28.2724 19.5509 28.0528 19.7305C27.8332 19.91 27.6661 20.1455 27.5691 20.4121L27.3889 20.9091C26.7506 20.9948 26.1036 20.9917 25.4661 20.8999L25.3203 20.6883C25.2927 20.6468 25.2572 20.6113 25.2157 20.5838C25.1743 20.5562 25.1278 20.5372 25.079 20.5278C25.0301 20.5184 24.9799 20.5188 24.9312 20.529C24.8825 20.5393 24.8363 20.5591 24.7953 20.5873C24.7544 20.6155 24.7194 20.6516 24.6926 20.6935C24.6657 20.7353 24.6474 20.7821 24.6388 20.8311C24.6302 20.8801 24.6314 20.9303 24.6424 20.9789C24.6534 21.0274 24.6739 21.0732 24.7028 21.1138L24.9403 21.4583C25.2376 21.8877 25.6666 22.2086 26.1625 22.3727L29.7775 23.5625C29.864 23.594 29.9431 23.6429 30.0099 23.7064C30.0766 23.7698 30.1296 23.8463 30.1654 23.9311C30.2013 24.0159 30.2192 24.1072 30.2182 24.1992C30.2172 24.2913 30.1972 24.3821 30.1595 24.4661C30.0918 24.6153 29.9722 24.7347 29.823 24.8021C29.6737 24.8695 29.5051 24.8803 29.3485 24.8325L29.3397 24.8299L26.0753 23.9174C25.5808 23.7793 25.0715 23.7011 24.5583 23.6844L23.2255 23.6416C22.3915 23.6136 21.5738 23.4024 20.8306 23.0228C20.825 23.0199 20.8193 23.0172 20.8136 23.0146L17.7869 21.6511L19.1004 17.9993C20.0096 18.064 22.8569 18.162 25.9943 17.2018ZM27.1038 21.6949L27.0396 21.8719L26.5786 21.7201C26.7739 21.7173 26.9505 21.7076 27.1038 21.6949ZM15.4168 21.6696L16.2014 16.5188L18.6218 17.114L16.8 22.179L15.4168 21.6696Z" fill="#E31E24"></path><path d="M33.8645 27.7838C33.8479 27.8714 33.863 27.962 33.9071 28.0394C33.9512 28.1168 34.0215 28.176 34.1052 28.2064C34.189 28.2367 34.2809 28.2362 34.3643 28.205C34.4478 28.1738 34.5174 28.1139 34.5607 28.036C34.7064 28.0242 34.8471 27.9774 34.9707 27.8995C35.0944 27.8215 35.1973 27.7148 35.2708 27.5885C35.3442 27.4621 35.386 27.3198 35.3925 27.1738C35.3991 27.0278 35.3701 26.8824 35.3083 26.75C35.2585 26.643 35.188 26.5469 35.1009 26.4673C35.0138 26.3878 34.9117 26.3263 34.8006 26.2865C34.7824 26.2799 34.7657 26.2698 34.7514 26.2567C34.7371 26.2436 34.7255 26.2278 34.7174 26.2102C34.7047 26.1828 34.7002 26.1523 34.7046 26.1225C34.709 26.0926 34.7221 26.0647 34.7422 26.0422C34.7623 26.0196 34.7885 26.0035 34.8176 25.9957C34.8468 25.9879 34.8776 25.9888 34.9063 25.9983C34.9278 26.0061 34.9472 26.0189 34.963 26.0355C34.9788 26.0522 34.9905 26.0723 34.9971 26.0942C35.0117 26.1412 35.0355 26.1849 35.067 26.2228C35.0985 26.2607 35.1371 26.2919 35.1807 26.3149C35.2243 26.3378 35.272 26.3519 35.321 26.3564C35.3701 26.3609 35.4195 26.3557 35.4665 26.3411C35.5136 26.3264 35.5573 26.3027 35.5951 26.2712C35.633 26.2397 35.6643 26.2011 35.6872 26.1575C35.7101 26.1139 35.7242 26.0662 35.7287 26.0172C35.7332 25.9681 35.728 25.9187 35.7134 25.8717C35.6661 25.7194 35.5791 25.5825 35.4612 25.4752C35.4798 25.3848 35.4643 25.2907 35.4179 25.211C35.3714 25.1313 35.2971 25.0715 35.2092 25.0432C35.1214 25.0149 35.0262 25.02 34.9419 25.0575C34.8576 25.0951 34.7902 25.1624 34.7524 25.2467C34.6101 25.2633 34.4738 25.3135 34.3547 25.3932C34.2356 25.4728 34.1371 25.5796 34.0674 25.7048C33.9976 25.8299 33.9586 25.9699 33.9535 26.1131C33.9485 26.2563 33.9775 26.3986 34.0382 26.5284C34.0879 26.6354 34.1584 26.7315 34.2455 26.8111C34.3327 26.8906 34.4347 26.9521 34.5458 26.9919C34.5641 26.9985 34.5808 27.0086 34.5951 27.0217C34.6094 27.0348 34.6209 27.0506 34.6291 27.0682C34.6418 27.0955 34.6462 27.126 34.6418 27.1559C34.6374 27.1857 34.6244 27.2137 34.6043 27.2362C34.5842 27.2587 34.558 27.2749 34.5288 27.2827C34.4997 27.2905 34.4688 27.2896 34.4402 27.2801C34.4187 27.2722 34.3992 27.2595 34.3835 27.2428C34.3677 27.2262 34.356 27.2061 34.3493 27.1842C34.3192 27.09 34.253 27.0115 34.1653 26.9659C34.0776 26.9202 33.9753 26.9111 33.8809 26.9404C33.7865 26.9698 33.7074 27.0352 33.661 27.1226C33.6146 27.2099 33.6046 27.312 33.6331 27.4067C33.6775 27.5498 33.7571 27.6795 33.8645 27.7838Z" fill="#E31E24"></path><path d="M33.7576 29.1643C34.0393 29.2663 34.3367 29.3185 34.6363 29.3186C35.0783 29.3175 35.5129 29.2051 35.9 28.9917C36.2871 28.7783 36.6142 28.4709 36.8511 28.0977C37.088 27.7246 37.2271 27.2978 37.2555 26.8567C37.284 26.4156 37.2008 25.9745 37.0138 25.574C36.87 25.2643 36.6661 24.9863 36.4139 24.7561C36.1618 24.5258 35.8665 24.3479 35.5451 24.2327C35.0568 24.0601 34.5284 24.0356 34.0263 24.1623C33.5242 24.2889 33.0707 24.5612 32.7228 24.9448C32.3749 25.3284 32.1481 25.8062 32.0709 26.3183C31.9937 26.8304 32.0695 27.3539 32.2888 27.823C32.4327 28.1326 32.6366 28.4106 32.8887 28.6409C33.1408 28.8711 33.4362 29.049 33.7576 29.1643ZM32.9046 26.0683C33.0355 25.706 33.2747 25.3928 33.5897 25.171C33.9047 24.9492 34.2802 24.8296 34.6654 24.8284C35.016 24.8287 35.3592 24.929 35.6549 25.1174C35.9505 25.3058 36.1863 25.5745 36.3347 25.8922C36.4911 26.227 36.5452 26.6006 36.4903 26.966C36.4353 27.3315 36.2738 27.6726 36.0258 27.9467C35.7778 28.2207 35.4545 28.4155 35.0964 28.5066C34.7382 28.5977 34.3611 28.5811 34.0123 28.4588C33.7837 28.3769 33.5737 28.2503 33.3945 28.0865C33.2152 27.9227 33.0702 27.725 32.9679 27.5047C32.8628 27.2814 32.8031 27.0394 32.7922 26.7929C32.7813 26.5463 32.8195 26.3 32.9046 26.0683Z" fill="#E31E24"></path><path d="M25.4715 18.7024C25.5042 18.7025 25.5368 18.6983 25.5684 18.6899C25.6997 18.6549 25.8323 18.6179 25.9622 18.5801C26.0577 18.5523 26.1382 18.4877 26.186 18.4005C26.2339 18.3133 26.2451 18.2107 26.2173 18.1152C26.1895 18.0197 26.1249 17.9392 26.0377 17.8913C25.9505 17.8435 25.8479 17.8322 25.7524 17.8601C25.6281 17.8963 25.5011 17.9317 25.3752 17.9653C25.2871 17.9886 25.2105 18.0432 25.1598 18.1189C25.109 18.1945 25.0875 18.2861 25.0994 18.3764C25.1112 18.4668 25.1555 18.5497 25.224 18.6098C25.2925 18.6698 25.3805 18.7029 25.4716 18.7028L25.4715 18.7024Z" fill="#E31E24"></path><path d="M20.8442 19.3433H20.8522C22.0332 19.3195 23.21 19.1935 24.3693 18.9669C24.4669 18.9477 24.5528 18.8905 24.6082 18.8079C24.6637 18.7253 24.684 18.6241 24.6648 18.5265C24.6456 18.4289 24.5884 18.343 24.5058 18.2875C24.4232 18.2321 24.322 18.2118 24.2244 18.231C23.1077 18.4492 21.9741 18.5705 20.8365 18.5935C20.737 18.5945 20.642 18.635 20.5724 18.7061C20.5028 18.7771 20.4643 18.8729 20.4654 18.9724C20.4664 19.0718 20.5069 19.1668 20.5779 19.2364C20.649 19.306 20.7448 19.3445 20.8442 19.3435V19.3433Z" fill="#E31E24"></path></svg> 