<?xml version="1.0" encoding="UTF-8"?> <svg xmlns="http://www.w3.org/2000/svg" width="60" height="60" viewBox="0 0 60 60" fill="none"><circle opacity="0.1" cx="30" cy="30" r="30" fill="#E31E24"></circle><path fill-rule="evenodd" clip-rule="evenodd" d="M42.895 18.6104V32.3129C44.1822 33.7663 44.9649 35.6761 44.9649 37.7656C44.9649 42.3061 41.2709 46 36.7305 46C33.2699 46 30.3014 43.8539 29.0849 40.8229H20.5832C20.3243 40.8229 20.1145 40.6131 20.1145 40.3542C20.1145 40.0953 20.3243 39.8854 20.5832 39.8854H28.7732C28.675 39.5171 28.6018 39.1387 28.5554 38.7521H17.5742C16.9672 38.7521 16.4095 38.5377 15.9722 38.1812V38.2834C15.9722 39.1667 16.6909 39.8854 17.5742 39.8854H18.7083C18.9672 39.8854 19.177 40.0952 19.177 40.3541C19.177 40.613 18.9672 40.8229 18.7083 40.8229H17.5742C16.1739 40.8229 15.0347 39.6837 15.0347 38.2834V27.8313C15.0347 27.5724 15.2445 27.3625 15.5034 27.3625C15.7624 27.3625 15.9722 27.5724 15.9722 27.8313V36.2126C15.9722 37.0959 16.6909 37.8146 17.5742 37.8146H28.4967C28.4967 37.8075 28.4966 37.8005 28.4964 37.7935C28.4963 37.7843 28.4961 37.775 28.4961 37.7656C28.4961 35.7782 29.2038 33.9531 30.3804 32.5289C30.3712 32.5276 30.362 32.5262 30.3528 32.5246C30.734 32.0172 31.4832 31.2317 32.5395 30.6563V30.6803C33.768 29.9509 35.201 29.5312 36.7305 29.5312C38.7134 29.5312 40.5347 30.2359 41.9575 31.4077V24.2563H15.9722V25.9563C15.9722 26.2151 15.7624 26.425 15.5034 26.425C15.2445 26.425 15.0347 26.2151 15.0347 25.9563V18.6103C15.0347 17.2101 16.1739 16.0708 17.5742 16.0708H21.2472V15.763C21.2472 14.7909 22.038 14 23.0102 14C23.9824 14 24.7732 14.7909 24.7732 15.763V16.0708H33.1552V15.763C33.1552 14.7909 33.946 14 34.9182 14C35.8903 14 36.6812 14.7909 36.6812 15.7631V16.0709H40.3555C41.7559 16.0709 42.895 17.2101 42.895 18.6104ZM34.9182 14.9375C34.463 14.9375 34.0927 15.3078 34.0927 15.763V18.3516C34.0927 18.8068 34.463 19.1771 34.9182 19.1771C35.3734 19.1771 35.7437 18.8067 35.7437 18.3516V15.763C35.7437 15.3078 35.3734 14.9375 34.9182 14.9375ZM23.0102 14.9375C22.555 14.9375 22.1847 15.3078 22.1847 15.763V18.3516C22.1847 18.8068 22.555 19.1771 23.0102 19.1771C23.4654 19.1771 23.8357 18.8067 23.8357 18.3516V15.763C23.8357 15.3078 23.4654 14.9375 23.0102 14.9375ZM21.2472 17.0083H17.5742C16.6909 17.0083 15.9722 17.727 15.9722 18.6104V21.2479H41.9575V18.6103C41.9575 17.727 41.2389 17.0083 40.3555 17.0083H36.6812V18.1416H37.2479C37.5068 18.1416 37.7166 18.3515 37.7166 18.6104C37.7166 18.8692 37.5068 19.0791 37.2479 19.0791H36.5234C36.2458 19.6892 35.6309 20.1146 34.9182 20.1146C34.2055 20.1146 33.5906 19.6891 33.313 19.0791H32.5885C32.3295 19.0791 32.1197 18.8692 32.1197 18.6104C32.1197 18.3515 32.3295 18.1416 32.5885 18.1416H33.1552V17.0083H24.7732V18.1416H25.3399C25.5988 18.1416 25.8086 18.3515 25.8086 18.6104C25.8086 18.8692 25.5988 19.0791 25.3399 19.0791H24.6154C24.3379 19.6892 23.723 20.1146 23.0102 20.1146C22.2975 20.1146 21.6826 19.6891 21.405 19.0791H20.6805C20.4216 19.0791 20.2118 18.8692 20.2118 18.6104C20.2118 18.3515 20.4216 18.1416 20.6805 18.1416H21.2472V17.0083ZM15.9722 22.1854V23.3188H41.9576V22.1854H15.9722ZM29.4336 37.7656C29.4336 41.7891 32.707 45.0625 36.7305 45.0625C40.754 45.0625 44.0274 41.7891 44.0274 37.7656C44.0274 33.7421 40.754 30.4688 36.7305 30.4688C32.707 30.4688 29.4336 33.7421 29.4336 37.7656Z" fill="#E31E24"></path><path d="M36.7304 31.6021C33.3318 31.6021 30.5669 34.367 30.5669 37.7656C30.5669 41.1642 33.3318 43.9292 36.7304 43.9292C40.129 43.9292 42.894 41.1642 42.894 37.7656C42.894 34.367 40.129 31.6021 36.7304 31.6021ZM36.7304 42.9917C33.8487 42.9917 31.5044 40.6473 31.5044 37.7656C31.5044 34.8839 33.8488 32.5396 36.7304 32.5396C39.612 32.5396 41.9565 34.8839 41.9565 37.7656C41.9565 40.6473 39.6121 42.9917 36.7304 42.9917Z" fill="#E31E24"></path><path d="M39.3192 37.2969H38.1596C38.0107 36.844 37.6523 36.4855 37.1994 36.3366V34.1417C37.1994 33.8828 36.9896 33.6729 36.7307 33.6729C36.4717 33.6729 36.2619 33.8828 36.2619 34.1417V36.3366C35.6614 36.5341 35.2266 37.0999 35.2266 37.7656C35.2266 38.595 35.9013 39.2698 36.7307 39.2698C37.3964 39.2698 37.9622 38.8349 38.1596 38.2344H39.3192C39.5781 38.2344 39.7879 38.0245 39.7879 37.7656C39.7879 37.5067 39.5781 37.2969 39.3192 37.2969ZM36.7306 38.3323C36.4182 38.3323 36.164 38.0781 36.164 37.7656C36.164 37.4531 36.4182 37.1989 36.7306 37.1989C37.0431 37.1989 37.2972 37.4531 37.2972 37.7656C37.2972 38.0781 37.0431 38.3323 36.7306 38.3323Z" fill="#E31E24"></path></svg> 