<?xml version="1.0" encoding="UTF-8"?> <svg xmlns="http://www.w3.org/2000/svg" width="60" height="60" viewBox="0 0 60 60" fill="none"><circle opacity="0.1" cx="30" cy="30" r="30" fill="#E31E24"></circle><g clip-path="url(#clip0)"><path d="M15.6983 23.8734H21.1249C22.0613 23.8734 22.8232 24.6356 22.8232 25.5726V31.8185H24.8529C24.7401 31.4084 24.6983 30.9248 24.7257 30.3619V30.3618C24.7698 27.9831 25.2014 25.9784 26.0088 24.4032C26.6356 23.1803 27.3672 22.4471 27.9949 22.0088C27.2581 21.2513 26.8321 20.1736 26.8321 18.9306C26.8321 16.6943 28.6161 14.875 30.8087 14.875C33.0014 14.875 34.7854 16.6943 34.7854 18.9306C34.7854 19.1896 34.5755 19.3994 34.3166 19.3994H33.9981C34.0274 19.5763 34.0431 19.7565 34.0431 19.9396C34.0431 21.5156 32.9169 22.8327 31.4281 23.1279C31.5841 23.7074 31.6617 24.3907 31.6614 25.167L32.8305 26.1726L35.6752 26.4026L38.9566 25.3179C39.2574 25.2179 39.5982 25.1049 39.894 25.3181C40.1854 25.5284 40.1854 25.8966 40.1854 26.0176V28.4572C40.1854 28.7162 39.9756 28.926 39.7167 28.926H39.1586L40.0146 31.8838C40.0865 32.1324 39.9432 32.3924 39.6946 32.4643C39.4457 32.5366 39.1859 32.393 39.1139 32.1444L38.1826 28.926H36.8499C38.5074 33.9805 37.5617 37.3544 36.108 40.7688H36.9506L40.4602 36.8447L39.7181 34.2809C39.6461 34.0322 39.7893 33.7723 40.038 33.7004C40.2867 33.6284 40.5466 33.7717 40.6186 34.0203L41.3284 36.4726C43.5238 36.436 45.4876 37.9496 45.988 40.1273C46.0459 40.3796 45.8885 40.6311 45.6363 40.6891L44.9709 40.8422C45.1409 42.6079 43.9781 44.2739 42.2047 44.6821C41.9354 44.7441 41.6637 44.7747 41.394 44.7747C40.7287 44.7747 40.0752 44.5882 39.4971 44.2259C38.8187 43.8008 38.3132 43.1758 38.0396 42.4372L37.5146 42.558C37.3581 42.5942 37.2097 42.6125 37.0615 42.5327C36.9236 42.4584 36.8319 42.3244 36.7975 42.1731C36.7645 42.0196 36.7394 41.8637 36.7219 41.7063H26.9183C26.6048 43.6555 24.9464 45.1248 22.9657 45.1248C20.985 45.1248 19.3265 43.6555 19.013 41.7063H18.6553C18.6553 41.7063 18.5842 41.7071 18.5681 41.7071C18.434 41.7071 18.2404 41.6923 18.0814 41.5305C18.0018 41.4496 17.9084 41.3048 17.9156 41.0747C17.9288 40.6345 17.9949 40.2092 18.1076 39.8049C17.7342 37.5382 18.0935 36.1576 18.6261 35.0772C18.2894 34.8565 18.0661 34.4762 18.0661 34.0443V32.7559H15.6984C14.762 32.7559 14.0001 31.9937 14.0001 31.0567V25.5726C14 24.6356 14.7618 23.8734 15.6983 23.8734ZM39.9949 43.4317C40.595 43.8078 41.305 43.9273 41.9942 43.7686H41.9943C43.2629 43.4766 44.1093 42.3133 44.0476 41.0554L38.9631 42.2257C39.1734 42.721 39.5294 43.1399 39.9949 43.4317ZM37.6494 41.5651L44.941 39.8872C44.3783 38.3463 42.8641 37.3263 41.2089 37.4141L37.6369 41.4079C37.6401 41.4606 37.6442 41.5129 37.6494 41.5651ZM30.5691 33.3966C30.7052 33.7555 30.7052 34.1979 30.7052 34.8104V36.5793H32.4216V34.1525C32.4216 31.4089 30.9242 30.9199 30.2522 30.8393H25.6567C25.6752 31.4619 25.8157 31.9046 26.0824 32.1855C26.3933 32.5129 26.9252 32.6724 27.7087 32.6731L29.3913 32.6749C29.9913 32.6749 30.3876 32.9177 30.5691 33.3966ZM30.7052 37.5167V38.6359C30.7094 38.6359 30.7138 38.6359 30.7183 38.6359H34.0479C34.0104 38.2888 33.9023 38.0202 33.7247 37.8343C33.4606 37.5579 33.0886 37.5167 32.8904 37.5167H30.7052ZM25.6774 29.9018H29.9403C30.1115 29.3631 30.2641 28.7732 30.3896 28.167L29.0936 27.3258C28.3861 26.8663 28.018 26.2171 28.0837 25.5446C28.142 24.9484 28.5473 24.4158 29.1163 24.1879C29.6359 23.9797 30.1952 24.0451 30.6896 24.3612C30.6488 23.9128 30.5729 23.5126 30.4632 23.1728C30.2634 23.1522 30.0649 23.1131 29.8701 23.0558C29.4734 22.9637 29.1068 22.8169 28.7759 22.6222C27.8731 23.1616 25.8874 24.9111 25.6774 29.9018ZM33.8136 18.4619C33.5925 16.9642 32.3292 15.8126 30.8087 15.8126C29.133 15.8126 27.7696 17.2114 27.7696 18.9307C27.7696 20.3291 28.4402 21.4561 29.5214 21.9521V19.4857C29.5214 19.0586 29.6849 18.5347 30.4632 18.4639C30.4774 18.4626 30.4916 18.4619 30.5057 18.4619H33.8136ZM33.1055 19.9396C33.1055 19.7546 33.0844 19.5739 33.043 19.3994H30.5287C30.4998 19.4026 30.4787 19.4059 30.4636 19.409C30.4611 19.4264 30.459 19.4514 30.459 19.4857V22.2279C30.5707 22.2444 30.6831 22.2527 30.7954 22.2528C30.7964 22.2528 30.7975 22.2528 30.7985 22.2528C32.0707 22.2516 33.1055 21.2144 33.1055 19.9396ZM33.7132 27.1846L32.6029 27.0948C32.504 27.0869 32.4102 27.0477 32.3349 26.983L30.3311 25.2596L30.3308 25.2592C30.1371 25.0923 29.9302 25.0067 29.7289 25.0067C29.6392 25.0067 29.5507 25.0237 29.4649 25.0581C29.2172 25.1573 29.0413 25.384 29.0167 25.6356C28.9858 25.9523 29.1944 26.2733 29.6039 26.5393L31.8367 27.9886H33.7131V27.1846H33.7132ZM35.6942 27.3449L34.6507 27.2605V27.9887H35.8632C36.0204 27.9887 36.0587 27.8581 36.0632 27.7485C36.0658 27.6864 36.0599 27.3749 35.6942 27.3449ZM36.8036 27.0212C36.9448 27.2527 37.0107 27.5236 36.9999 27.7869C36.9971 27.8551 36.9884 27.9207 36.9763 27.9847C36.9763 27.9861 36.9771 27.9874 36.9768 27.9886H39.2478V26.2091L36.8018 27.0176C36.8026 27.0189 36.8029 27.0201 36.8036 27.0212ZM35.8606 28.9261H31.6981C31.6075 28.9261 31.5188 28.8999 31.4429 28.8506L31.2307 28.7128C31.1286 29.1639 31.0124 29.6029 30.8857 30.0176C31.8417 30.2998 33.3592 31.2117 33.3592 34.1524V36.6262C33.6881 36.6926 34.0771 36.846 34.4026 37.1866C34.7456 37.5456 34.9416 38.032 34.9886 38.6359H35.9342C36.8871 35.8898 37.2494 32.9675 35.8606 28.9261ZM35.088 40.7673C35.2612 40.3688 35.4282 39.9719 35.5855 39.5734H30.7184C30.0876 39.5734 29.7677 39.2863 29.7677 38.7199V37.0479V35.2791H26.0678C25.8089 35.2791 25.5991 35.0693 25.5991 34.8103C25.5991 34.5514 25.8089 34.3416 26.0678 34.3416H29.7644C29.7584 34.0753 29.7413 33.8576 29.6925 33.7289C29.6688 33.6664 29.6483 33.6124 29.3909 33.6124L27.7079 33.6106C26.6538 33.6096 25.8997 33.3546 25.4026 32.831C25.3796 32.8067 25.3578 32.7813 25.336 32.756H22.3544H19.0034V34.0443C19.0034 34.2054 19.1392 34.3416 19.3 34.3416H23.9666C24.2255 34.3416 24.4353 34.5514 24.4353 34.8103C24.4353 35.0693 24.2255 35.2791 23.9666 35.2791H19.5754C19.2049 35.9667 18.8717 36.8224 18.8915 38.1744C19.8189 36.8862 21.3202 36.0579 23.0241 36.0579C24.3924 36.0579 25.6764 36.5946 26.6396 37.5693C27.4943 38.4341 28.0076 39.5566 28.1133 40.7688L35.088 40.7673ZM22.9656 44.1874C24.431 44.1874 25.6669 43.1316 25.9659 41.7064H19.9654C20.2644 43.1315 21.5003 44.1874 22.9656 44.1874ZM19.4329 40.7689H26.4982H27.1717C26.9416 38.6494 25.1693 36.9954 23.0241 36.9954C21.1406 36.9954 19.5589 38.2373 19.0351 39.9759C19.0334 39.9814 19.0317 39.9869 19.0299 39.9923C18.9558 40.2418 18.9035 40.5014 18.8752 40.7689H19.4329ZM14.9375 31.0567C14.9375 31.4768 15.2788 31.8185 15.6983 31.8185H21.8857V29.3978H14.9375V31.0567ZM14.9375 28.4603H21.8857V27.4634H14.9375V28.4603ZM14.9375 26.5259H21.8857V25.5726C21.8857 25.1526 21.5444 24.8109 21.1249 24.8109H15.6983C15.2788 24.8109 14.9375 25.1526 14.9375 25.5726V26.5259Z" fill="#E31E24"></path></g><defs><clipPath id="clip0"><rect width="32" height="32" fill="white" transform="matrix(-1 0 0 1 46 14)"></rect></clipPath></defs></svg> 