<?xml version="1.0" encoding="UTF-8"?> <svg xmlns="http://www.w3.org/2000/svg" width="60" height="60" viewBox="0 0 60 60" fill="none"><circle opacity="0.1" cx="30" cy="30" r="30" fill="#E31E24"></circle><path d="M29.5 20.5H30.5V21.5H29.5V20.5Z" fill="#E31E24"></path><path d="M24.8169 22.0229L25.6828 21.5229L26.1828 22.389L25.3169 22.8889L24.8169 22.0229Z" fill="#E31E24"></path><path d="M37.1104 34.6827L37.6103 33.8167L38.4763 34.3167L37.9764 35.1827L37.1104 34.6827Z" fill="#E31E24"></path><path d="M38.5 29.5H39.5V30.5H38.5V29.5Z" fill="#E31E24"></path><path d="M37.1108 25.3174L37.9768 24.8174L38.4768 25.6834L37.6108 26.1834L37.1108 25.3174Z" fill="#E31E24"></path><path d="M33.8169 22.3893L34.3169 21.5233L35.1828 22.0233L34.6828 22.8893L33.8169 22.3893Z" fill="#E31E24"></path><path d="M16.4823 33.748L15.6187 34.252C16.7688 36.2431 18.1703 38.0779 19.7885 39.7114C21.7442 41.6673 24.0942 43.35 26.7732 44.7129L27.2267 43.8216C24.6415 42.5065 22.3767 40.8857 20.4954 39.0043C18.9379 37.4315 17.5892 35.6649 16.4823 33.748Z" fill="#E31E24"></path><path d="M34.8894 37.0401L31.8413 36.3625C31.5657 36.3012 31.2799 36.3027 31.0049 36.3667C30.73 36.4307 30.4729 36.5556 30.2527 36.7323C30.0325 36.9089 29.8547 37.1328 29.7326 37.3873C29.6105 37.6418 29.5471 37.9205 29.5471 38.2029V38.6542C29.3745 38.7709 29.1684 38.828 28.9603 38.8167C28.7522 38.8055 28.5535 38.7267 28.3944 38.5921C27.3559 37.7221 25.4596 36.1082 24.4256 35.0741C23.3916 34.04 21.7776 32.1438 20.9077 31.1054C20.7731 30.9462 20.6942 30.7475 20.683 30.5394C20.6718 30.3313 20.7288 30.1253 20.8455 29.9526H21.2969C21.5792 29.9527 21.8579 29.8893 22.1125 29.7672C22.367 29.6451 22.5909 29.4674 22.7676 29.2472C22.9442 29.0271 23.0692 28.77 23.1332 28.495C23.1973 28.2201 23.1987 27.9343 23.1375 27.6587L22.4601 24.6105C22.3391 24.0658 22.0628 23.5677 21.6647 23.1766C21.2665 22.7856 20.7636 22.5182 20.2168 22.4069C19.6699 22.2956 19.1025 22.3451 18.5832 22.5494C18.0639 22.7538 17.6149 23.1042 17.2905 23.5583L15.5086 26.0529C15.2538 26.4095 15.0888 26.8223 15.0276 27.2563C14.9665 27.6903 15.0109 28.1326 15.1573 28.5457C15.9188 30.6918 17.7177 34.8125 21.2026 38.2974C24.6876 41.7822 28.8082 43.581 30.9542 44.343C31.3673 44.4894 31.8097 44.5339 32.2437 44.4727C32.6777 44.4115 33.0906 44.2465 33.4471 43.9916L35.9416 42.2097C36.3957 41.8854 36.7462 41.4364 36.9505 40.9171C37.1549 40.3977 37.2044 39.8303 37.0931 39.2835C36.9818 38.7366 36.7144 38.2337 36.3233 37.8356C35.9323 37.4375 35.4342 37.1612 34.8894 37.0401ZM35.3604 41.396L32.8659 43.1779C32.6403 43.3392 32.3792 43.4436 32.1046 43.4824C31.83 43.5212 31.5502 43.4931 31.2888 43.4006C29.2223 42.6669 25.2558 40.9362 21.9098 37.5902C18.5638 34.2441 16.8331 30.2777 16.0994 28.2112C16.0069 27.9498 15.9788 27.67 16.0176 27.3954C16.0563 27.1208 16.1608 26.8597 16.3221 26.6341L18.1039 24.1395C18.316 23.8426 18.6096 23.6135 18.9491 23.4799C19.2886 23.3464 19.6595 23.314 20.017 23.3868C20.3746 23.4595 20.7033 23.6343 20.9636 23.89C21.2239 24.1457 21.4045 24.4713 21.4837 24.8274L22.1611 27.8756C22.1898 28.005 22.1892 28.1392 22.1591 28.2684C22.1291 28.3975 22.0704 28.5182 21.9875 28.6216C21.9045 28.725 21.7994 28.8085 21.6799 28.8658C21.5603 28.9231 21.4294 28.9529 21.2969 28.9529H20.6125C20.5468 28.9528 20.4818 28.9658 20.4211 28.9909C20.3604 29.016 20.3053 29.0529 20.2589 29.0993C19.9095 29.4449 19.7033 29.9096 19.6815 30.4005C19.6596 30.8914 19.8237 31.3726 20.1409 31.7479C21.2165 33.0317 22.7103 34.7735 23.7182 35.7815C24.7261 36.7895 26.4682 38.2832 27.7519 39.3589C28.1272 39.6761 28.6083 39.8402 29.0993 39.8183C29.5902 39.7964 30.0548 39.5902 30.4004 39.2409C30.4469 39.1944 30.4837 39.1393 30.5088 39.0786C30.534 39.0179 30.5469 38.9529 30.5469 38.8872V38.2031C30.5469 38.0705 30.5766 37.9397 30.634 37.8201C30.6913 37.7006 30.7748 37.5955 30.8782 37.5126C30.9816 37.4296 31.1023 37.3709 31.2314 37.3409C31.3605 37.3108 31.4947 37.3102 31.6241 37.3389L34.6723 38.0163C35.0285 38.0955 35.3541 38.2761 35.6097 38.5364C35.8654 38.7967 36.0402 39.1255 36.1129 39.483C36.1857 39.8405 36.1533 40.2114 36.0197 40.5509C35.8861 40.8904 35.6571 41.184 35.3602 41.396H35.3604Z" fill="#E31E24"></path><path d="M28.5001 24V28.6792C28.2235 28.9932 28.0524 29.3861 28.0108 29.8024C27.9693 30.2188 28.0595 30.6377 28.2686 31.0001C28.4777 31.3625 28.7953 31.6501 29.1766 31.8225C29.5578 31.9949 29.9836 32.0433 30.3938 31.9609L34.4501 34.3008C34.6773 34.4299 34.9338 34.4985 35.1951 34.5C35.4578 34.4995 35.7157 34.4302 35.9433 34.2989C36.1708 34.1677 36.36 33.9791 36.492 33.7519C36.5916 33.5817 36.6566 33.3934 36.683 33.1978C36.7095 33.0023 36.6969 32.8035 36.6461 32.6129C36.5952 32.4223 36.5071 32.2436 36.3868 32.0873C36.2665 31.9309 36.1164 31.7999 35.9451 31.7019L31.8956 29.3633C31.8105 29.1113 31.6761 28.8787 31.5001 28.6792V24C31.4982 23.6027 31.3396 23.2223 31.0587 22.9414C30.7778 22.6605 30.3973 22.5018 30.0001 22.5C29.6024 22.5005 29.2211 22.6586 28.9399 22.9399C28.6587 23.2211 28.5005 23.6023 28.5001 24ZM29.0001 30C29.0001 29.8022 29.0587 29.6089 29.1686 29.4444C29.2785 29.28 29.4347 29.1518 29.6174 29.0761C29.8001 29.0004 30.0012 28.9806 30.1952 29.0192C30.3891 29.0578 30.5673 29.153 30.7072 29.2929C30.847 29.4327 30.9423 29.6109 30.9809 29.8049C31.0194 29.9989 30.9996 30.2 30.924 30.3827C30.8483 30.5654 30.7201 30.7216 30.5556 30.8315C30.3912 30.9414 30.1979 31 30.0001 31C29.735 30.9997 29.4808 30.8942 29.2933 30.7068C29.1058 30.5193 29.0004 30.2651 29.0001 30ZM35.6798 32.8707C35.6968 32.9342 35.7008 33.0004 35.6918 33.0655C35.6828 33.1306 35.6608 33.1933 35.6272 33.2498C35.5833 33.3256 35.5203 33.3885 35.4445 33.4324C35.3687 33.4763 35.2827 33.4995 35.1951 33.4998C35.1073 33.4989 35.0212 33.4754 34.9451 33.4316L31.4251 31.4015C31.6628 31.1601 31.8354 30.8623 31.9265 30.536L35.4466 32.5688C35.5036 32.6011 35.5536 32.6444 35.5936 32.6962C35.6337 32.7481 35.663 32.8074 35.6798 32.8707ZM30.0001 23.5C30.0646 23.4994 30.1285 23.5118 30.1881 23.5365C30.2476 23.5612 30.3016 23.5977 30.3467 23.6438L30.3564 23.6534C30.4025 23.6985 30.4389 23.7525 30.4636 23.812C30.4883 23.8716 30.5007 23.9355 30.5001 24V28.0633C30.1721 27.9789 29.8281 27.9789 29.5001 28.0633V24C29.5002 23.8674 29.5529 23.7403 29.6467 23.6466C29.7404 23.5529 29.8675 23.5001 30.0001 23.5Z" fill="#E31E24"></path><path d="M40.529 34.6316C41.1725 33.1724 41.5033 31.5947 41.4999 30C41.4999 23.6589 36.341 18.5 29.9999 18.5C28.4334 18.4982 26.8831 18.8173 25.4447 19.4376C24.0062 20.058 22.7101 20.9665 21.6362 22.107L22.3634 22.7938C23.3413 21.7491 24.5242 20.9174 25.8382 20.3507C27.1522 19.7839 28.5689 19.4943 29.9999 19.5C35.7897 19.5 40.4999 24.2103 40.4999 30C40.5056 31.431 40.216 32.8477 39.6493 34.1617C39.0825 35.4757 38.2508 36.6586 37.2062 37.6366L37.8927 38.3637C39.013 37.3092 39.9096 36.0399 40.529 34.6316Z" fill="#E31E24"></path><path d="M30.0003 16.5C28.062 16.4998 26.1464 16.917 24.3838 17.7234C22.6212 18.5297 21.0529 19.7062 19.7856 21.1729L20.5419 21.827C21.7153 20.4689 23.1675 19.3795 24.7996 18.6328C26.4317 17.8862 28.2055 17.4998 30.0003 17.5C36.8928 17.5 42.5003 23.1075 42.5003 30C42.5054 31.9007 42.0747 33.7773 41.2412 35.4855C40.4078 37.1937 39.1937 38.688 37.6924 39.8537L38.3084 40.6416C40.5241 38.9116 42.1446 36.5331 42.9436 33.8379C43.7427 31.1427 43.6805 28.2654 42.7657 25.6072C41.8509 22.9491 40.1292 20.6429 37.8408 19.0102C35.5524 17.3776 32.8114 16.5 30.0003 16.5Z" fill="#E31E24"></path><path d="M44.6182 24.8334L43.6753 25.1665C43.7874 25.4837 43.8895 25.8089 43.979 26.133L44.943 25.8669C44.8473 25.5203 44.738 25.1726 44.6182 24.8334Z" fill="#E31E24"></path><path d="M43.2935 24.2L44.2098 23.8C43.2848 21.6858 41.9005 19.8043 40.1574 18.292C38.4144 16.7797 36.3563 15.6747 34.1328 15.0573L33.8667 16.0213C35.9467 16.599 37.8719 17.6328 39.5025 19.0475C41.133 20.4622 42.4281 22.2223 43.2935 24.2Z" fill="#E31E24"></path></svg> 