<?xml version="1.0" encoding="UTF-8"?> <svg xmlns="http://www.w3.org/2000/svg" width="60" height="60" viewBox="0 0 60 60" fill="none"><circle opacity="0.1" cx="30" cy="30" r="30" fill="#E31E24"></circle><g clip-path="url(#clip0)"><path d="M27.9062 37.8845C27.7405 37.8845 27.5815 37.8186 27.4644 37.7014L20.6685 30.9058C20.4243 30.6616 20.4243 30.2659 20.6685 30.0217L24.2039 26.4863C24.448 26.2422 24.8438 26.2422 25.0879 26.4863L27.9062 29.3047L34.9121 22.2986C35.0293 22.1814 35.1885 22.1155 35.3542 22.1155C35.5198 22.1155 35.679 22.1814 35.7961 22.2986L39.3315 25.8342C39.5757 26.0781 39.5757 26.4739 39.3315 26.718L28.3481 37.7017C28.231 37.8188 28.072 37.8845 27.9062 37.8845ZM21.9944 30.4639L27.9062 36.3757L38.0059 26.2761L35.3542 23.6243L28.3481 30.6304C28.104 30.8745 27.7083 30.8745 27.4644 30.6304L24.646 27.812L21.9944 30.4639Z" fill="#E31E24"></path><path d="M29.9961 46C29.5879 46 29.1792 45.9844 28.7698 45.9531C24.9675 45.6616 21.3865 44.0139 18.6863 41.314C15.6643 38.2917 14 34.2739 14 30C14 25.7263 15.6643 21.7083 18.6863 18.6863C21.7083 15.6643 25.7263 14 30 14C34.2739 14 38.2917 15.6643 41.314 18.6863C44.0139 21.3865 45.6616 24.9675 45.9531 28.7698C46.2415 32.5308 45.1941 36.2795 43.0042 39.3259C42.8027 39.6062 42.4121 39.6699 42.1318 39.4685C41.8516 39.2671 41.7878 38.8765 41.9893 38.5962C46.2222 32.7083 45.5664 24.7068 40.4299 19.5701C34.679 13.8191 25.3213 13.8191 19.5703 19.5701C13.8191 25.3213 13.8191 34.6787 19.5703 40.4299C24.7068 45.5662 32.7085 46.2222 38.5964 41.989C38.8767 41.7876 39.2671 41.8516 39.4688 42.1318C39.6702 42.4121 39.6062 42.8025 39.3259 43.0042C36.6111 44.9558 33.3381 46 29.9961 46Z" fill="#E31E24"></path><path d="M40.8721 41.4971C40.7075 41.4971 40.5464 41.4302 40.4302 41.314C40.314 41.1975 40.2471 41.0364 40.2471 40.8721C40.2471 40.7075 40.314 40.5464 40.4302 40.4302C40.5464 40.314 40.7075 40.2471 40.8721 40.2471C41.0364 40.2471 41.1975 40.314 41.314 40.4302C41.4302 40.5464 41.4971 40.7075 41.4971 40.8721C41.4971 41.0364 41.4302 41.1975 41.314 41.314C41.1975 41.4302 41.0364 41.4971 40.8721 41.4971Z" fill="#E31E24"></path></g><defs><clipPath id="clip0"><rect width="32" height="32" fill="white" transform="translate(14 14)"></rect></clipPath></defs></svg> 