<?xml version="1.0" encoding="UTF-8"?> <svg xmlns="http://www.w3.org/2000/svg" width="60" height="60" viewBox="0 0 60 60" fill="none"><circle opacity="0.1" cx="30" cy="30" r="30" fill="#E31E24"></circle><g clip-path="url(#clip0)"><path d="M45.9383 31.4782C45.651 28.5882 44.3599 25.8638 42.3028 23.8065C40.5447 22.0486 38.3929 20.9189 36.1288 20.4165V18.8285C37.0535 18.5984 37.7409 17.7614 37.7409 16.7664C37.7409 15.5947 36.7877 14.6414 35.6159 14.6414H31.1158C29.9441 14.6414 28.9908 15.5947 28.9908 16.7664C28.9908 17.7613 29.6782 18.5984 30.6029 18.8285V20.421C28.3457 20.9254 26.201 22.0536 24.448 23.8066C24.0643 24.1902 23.7106 24.5927 23.3868 25.0109C23.3711 25.0097 23.3554 25.0086 23.3394 25.0086H18.8855C18.5404 25.0086 18.2605 25.2884 18.2605 25.6336C18.2605 25.9788 18.5404 26.2586 18.8855 26.2586H22.5363C22.0781 27.0258 21.7086 27.8315 21.4273 28.6609H14.625C14.2799 28.6609 14 28.9407 14 29.2859C14 29.6311 14.2799 29.9109 14.625 29.9109H21.0741C20.894 30.7016 20.7906 31.5063 20.7639 32.3132H18.0001C17.6549 32.3132 17.3751 32.593 17.3751 32.9382C17.3751 33.2834 17.6549 33.5632 18.0001 33.5632H20.7839C20.8366 34.3723 20.9667 35.177 21.1741 35.9656H17.125C16.7799 35.9656 16.5 36.2454 16.5 36.5906C16.5 36.9358 16.7799 37.2156 17.125 37.2156H21.573C22.1861 38.8376 23.1443 40.3578 24.448 41.6614C26.5071 43.7206 29.2344 45.012 32.1273 45.2978C32.5402 45.3386 32.9534 45.3587 33.3661 45.3587C35.805 45.3587 38.2129 44.6529 40.256 43.3224C40.5453 43.134 40.6271 42.7468 40.4387 42.4576C40.2503 42.1683 39.8632 42.0865 39.5739 42.2749C35.1015 45.1872 29.1119 44.5575 25.3319 40.7775C20.8967 36.3424 20.8967 29.1258 25.3319 24.6905C29.767 20.2554 36.9835 20.2554 41.4188 24.6905C45.1938 28.4656 45.8269 34.4501 42.9242 38.9203C42.7362 39.2098 42.8185 39.597 43.108 39.7849C43.3976 39.9729 43.7846 39.8906 43.9725 39.6011C45.5234 37.2126 46.2216 34.3279 45.9383 31.4782ZM30.2408 16.7665C30.2408 16.284 30.6333 15.8915 31.1158 15.8915H35.6159C36.0984 15.8915 36.4909 16.284 36.4909 16.7665C36.4909 17.249 36.0984 17.6415 35.6159 17.6415H35.5038H31.2279H31.1158C30.6333 17.6415 30.2408 17.2489 30.2408 16.7665ZM31.8529 20.2061V18.8915H34.8788V20.2038C33.874 20.0843 32.8575 20.0851 31.8529 20.2061Z" fill="#E31E24"></path><path d="M41.8608 40.5942C41.6958 40.5942 41.5352 40.6611 41.419 40.7773C41.3022 40.8936 41.2358 41.0548 41.2358 41.2192C41.2358 41.3836 41.3022 41.5448 41.419 41.6611C41.5352 41.7779 41.6959 41.8442 41.8608 41.8442C42.0252 41.8442 42.1858 41.7779 42.3027 41.6611C42.419 41.5448 42.4858 41.3836 42.4858 41.2192C42.4858 41.0548 42.419 40.8936 42.3027 40.7773C42.1858 40.6611 42.0252 40.5942 41.8608 40.5942Z" fill="#E31E24"></path><path d="M33.3754 23.0382C28.0292 23.0382 23.6797 27.3877 23.6797 32.7339C23.6797 38.0802 28.0292 42.4296 33.3754 42.4296C38.7216 42.4296 43.0711 38.0802 43.0711 32.7339C43.0711 27.3877 38.7216 23.0382 33.3754 23.0382ZM33.3754 41.1796C28.7184 41.1796 24.9297 37.3909 24.9297 32.7339C24.9297 28.077 28.7184 24.2882 33.3754 24.2882C38.0324 24.2882 41.8211 28.077 41.8211 32.7339C41.8211 37.3909 38.0324 41.1796 33.3754 41.1796Z" fill="#E31E24"></path><path d="M37.3293 27.8965L34.2337 30.9921C33.9748 30.8641 33.6836 30.7918 33.3758 30.7918C33.0679 30.7918 32.7768 30.8641 32.5179 30.9921L31.1324 29.6066C30.8883 29.3626 30.4927 29.3626 30.2485 29.6066C30.0044 29.8507 30.0044 30.2465 30.2485 30.4905L31.6339 31.876C31.5059 32.1349 31.4336 32.4261 31.4336 32.7339C31.4336 33.8048 32.3048 34.676 33.3758 34.676C34.4467 34.676 35.3179 33.8048 35.3179 32.7339C35.3179 32.4261 35.2456 32.1349 35.1176 31.876L38.1224 28.8712L38.2132 28.7804C38.4573 28.5363 38.4573 28.1406 38.2132 27.8965C37.9691 27.6524 37.5735 27.6524 37.3293 27.8965ZM33.3758 33.4261C32.9941 33.4261 32.6836 33.1156 32.6836 32.7339C32.6836 32.3523 32.9941 32.0418 33.3758 32.0418C33.7574 32.0418 34.0679 32.3523 34.0679 32.7339C34.0679 33.1156 33.7574 33.4261 33.3758 33.4261Z" fill="#E31E24"></path><path d="M40.0581 32.1165H39.479C39.1339 32.1165 38.854 32.3964 38.854 32.7415C38.854 33.0867 39.1339 33.3665 39.479 33.3665H40.0581C40.4032 33.3665 40.6831 33.0867 40.6831 32.7415C40.6831 32.3964 40.4032 32.1165 40.0581 32.1165Z" fill="#E31E24"></path><path d="M27.2719 32.1013H26.6929C26.3477 32.1013 26.0679 32.3811 26.0679 32.7263C26.0679 33.0715 26.3477 33.3513 26.6929 33.3513H27.2719C27.617 33.3513 27.8969 33.0715 27.8969 32.7263C27.8969 32.3811 27.617 32.1013 27.2719 32.1013Z" fill="#E31E24"></path><path d="M33.3828 27.2554C33.7279 27.2554 34.0078 26.9756 34.0078 26.6304V26.0514C34.0078 25.7062 33.7279 25.4264 33.3828 25.4264C33.0377 25.4264 32.7578 25.7062 32.7578 26.0514V26.6304C32.7578 26.9756 33.0377 27.2554 33.3828 27.2554Z" fill="#E31E24"></path><path d="M33.3677 38.2125C33.0226 38.2125 32.7427 38.4923 32.7427 38.8375V39.4165C32.7427 39.7616 33.0226 40.0415 33.3677 40.0415C33.7128 40.0415 33.9927 39.7616 33.9927 39.4165V38.8375C33.9927 38.4923 33.7128 38.2125 33.3677 38.2125Z" fill="#E31E24"></path><path d="M14.625 35.9654C14.4606 35.9654 14.2994 36.0322 14.1831 36.1485C14.0669 36.2647 14 36.426 14 36.5904C14 36.7554 14.0668 36.916 14.1831 37.0322C14.2994 37.1485 14.4606 37.2154 14.625 37.2154C14.7894 37.2154 14.9506 37.1485 15.0668 37.0322C15.1831 36.916 15.25 36.7547 15.25 36.5904C15.25 36.426 15.1831 36.2647 15.0668 36.1485C14.9506 36.0322 14.7894 35.9654 14.625 35.9654Z" fill="#E31E24"></path></g><defs><clipPath id="clip0"><rect width="32" height="32" fill="white" transform="translate(14 14)"></rect></clipPath></defs></svg> 